<?xml version="1.0" standalone="no"?>
<!DOCTYPE svg PUBLIC "-//W3C//DTD SVG 1.1//EN" "http://www.w3.org/Graphics/SVG/1.1/DTD/svg11.dtd" >
<svg xmlns="http://www.w3.org/2000/svg" xmlns:xlink="http://www.w3.org/1999/xlink" version="1.1">
<metadata></metadata>
<defs>
<font id="skynet.enterpriseregular" horiz-adv-x="1014" >
<font-face units-per-em="2048" ascent="1638" descent="-410" />
<missing-glyph horiz-adv-x="508" />
<glyph unicode="&#xd;" horiz-adv-x="508" />
<glyph horiz-adv-x="0" />
<glyph horiz-adv-x="0" />
<glyph unicode=" "  horiz-adv-x="508" />
<glyph unicode="&#x09;" horiz-adv-x="508" />
<glyph unicode="&#xa0;" horiz-adv-x="508" />
<glyph unicode="!" horiz-adv-x="404" d="M0 131q0 52 37 89t89 37t89 -37t37 -89q0 -53 -37 -89.5t-89 -36.5t-89 36.5t-37 89.5zM34 338v1102h176v-1102h-176z" />
<glyph unicode="&#x22;" horiz-adv-x="494" d="M-4 1500q0 37 20.5 57t59.5 20t60.5 -19.5t21.5 -56.5q0 -8 -4 -34l-62 -359h-30l-62 359q-4 23 -4 33zM308 1500q0 37 20.5 57t59.5 20t60.5 -19.5t21.5 -56.5q0 -8 -4 -34l-62 -359h-30l-62 359q-4 23 -4 33z" />
<glyph unicode="#" horiz-adv-x="1435" d="M117 472l30 98h271l86 290h-295l29 97h295l140 477h93l-141 -477h242l142 477h92l-141 -477h259l-29 -97h-259l-83 -290h279l-30 -98h-280l-140 -472h-92l139 472h-240l-142 -472h-92l140 472h-273zM511 569h242l86 290h-243z" />
<glyph unicode="$" horiz-adv-x="1298" d="M85 1056v56q0 253 224 356q85 28 204 28h248q130 0 216 -176l-8 -4h-452q-175 0 -236 -124q-12 -50 -12 -88v-24q0 -150 292 -232q100 -81 100 -192q-8 -4 -12 -4q-282 0 -464 140q-100 78 -100 264zM117 172v8h524q252 36 252 248q0 153 -172 212q0 125 -80 204h-4v8 q214 -35 336 -128q120 -97 120 -288q0 -301 -304 -408q-87 -28 -172 -28h-352q-5 0 -36 76q-60 84 -112 96zM551 -157v1821h100v-1821h-100z" />
<glyph unicode="%" horiz-adv-x="1740" d="M67 1080q0 100 52 190.5t144.5 139.5t190.5 49t190.5 -49t144.5 -139.5t52 -190.5q0 -99 -50.5 -188.5t-143 -140t-193.5 -50.5q-100 0 -192.5 50.5t-143.5 140t-51 188.5zM126 1135q-8 -57 15 -110q22 -48 61 -79l7 -6q43 -34 100.5 -42t109.5 16q33 15 59 38 q14 13 26 29q34 45 41.5 103t-16.5 110q-21 47 -59 78l-8 6q-42 33 -98.5 41.5t-109.5 -15.5q-36 -16 -62 -40q-14 -13 -26 -28q-32 -44 -40 -101zM302 -29l940 1461h84l-938 -1461h-86zM779 359q0 99 52 189.5t144.5 140t190.5 49.5q97 0 190 -49.5t145 -140t52 -189.5 q0 -100 -50.5 -189.5t-143 -139.5t-193.5 -50t-193 50t-143 139.5t-51 189.5zM1051.5 302.5q-7.5 -57.5 15.5 -110.5q21 -49 57 -80l7 -6q42 -34 96.5 -42t105.5 16q31 15 56 39q13 13 25 29q32 45 39 103.5t-15 110.5q-21 48 -57 79l-7 6q-41 33 -95 41.5t-105 -15.5 q-34 -16 -59 -40q-14 -13 -24 -28q-32 -45 -39.5 -102.5z" />
<glyph unicode="&#x26;" horiz-adv-x="1222" d="M0 288v130q0 240 317 303q419 0 419 231v14q0 173 -274 173q-260 0 -260 -173q33 -173 115 -173v-29q-21 0 -173 -43q-101 68 -101 188v115q0 274 447 274q419 0 419 -303v-58q-39 -331 -274 -331q-462 0 -462 -231v-43q0 -173 317 -173q159 0 159 43q-114 113 -274 303 v29h202q173 -167 173 -202q29 0 29 29v201l144 145h14v-404q0 -29 -28 -144q14 -1 115 -130v-15h-202q-21 0 -43 44q-106 -58 -231 -58h-144q-404 0 -404 288z" />
<glyph unicode="'" horiz-adv-x="346" d="M101 1500q0 37 20.5 57t59.5 20t60.5 -19.5t21.5 -56.5q0 -8 -4 -34l-62 -359h-30l-62 359q-4 23 -4 33z" />
<glyph unicode="(" horiz-adv-x="504" d="M5 601q2 277 99.5 530t268.5 442h80q-172 -242 -230 -438q-57 -193 -57 -523v-22q0 -330 57 -522q58 -196 230 -438h-80q-171 189 -268.5 441.5t-99.5 529.5z" />
<glyph unicode=")" horiz-adv-x="699" d="M58 -370q172 242 230 438q57 192 57 522v22q0 330 -57 523q-58 196 -230 438h80q171 -189 268.5 -442t99.5 -530q-2 -277 -99.5 -529.5t-268.5 -441.5h-80z" />
<glyph unicode="*" horiz-adv-x="1024" d="M218 1333q0 17 6 36q11 35 36 53q17 12 34 12q9 0 18 -3q20 -6 74 -62q47 -49 112 -75q-4 71 -37 130q-37 66 -37 84q0 32 23.5 51.5t62.5 19.5q37 0 61.5 -18t24.5 -47q0 -21 -36 -89q-33 -61 -37 -130q66 25 113 75q51 55 69 61q11 3 21 3q18 0 35 -10q26 -17 38 -53 q6 -19 6 -36q0 -15 -4 -28q-10 -30 -38 -38q-6 -2 -19 -2q-25 0 -76 9q-28 5 -55 5q-41 0 -81 -11q44 -55 105 -83q68 -32 79 -47q13 -18 13 -38q0 -9 -2 -17q-8 -30 -39 -53q-29 -22 -59 -22q-1 0 -1 1q-31 0 -48 23q-12 17 -22 94q-10 67 -47 125q-38 -58 -46 -124 q-9 -75 -20 -90q-19 -25 -49 -27h-5q-28 0 -57 21q-30 21 -39 51q-4 10 -4 20q0 17 11 32q13 17 83 51q61 29 105 82q-41 11 -80 11q-27 0 -53 -5q-54 -11 -78 -11q-9 0 -14 2q-30 9 -41 38q-6 13 -6 29z" />
<glyph unicode="+" horiz-adv-x="1031" d="M-5 649v135h351v352h138v-352h350v-135h-350v-350h-138v350h-351z" />
<glyph unicode="," horiz-adv-x="333" d="M4 162q0 37 30.5 63.5t73.5 26.5q44 0 74.5 -26.5t30.5 -63.5t-30.5 -63.5t-74.5 -26.5q-43 0 -73.5 26.5t-30.5 63.5zM35 216q0 16 30 27.5t73 11.5q42 0 72 -11.5t30 -27.5t-30 -27.5t-72 -11.5q-43 0 -73 11.5t-30 27.5zM73 78v42l119 125q44 0 88.5 -65.5 t44.5 -151.5q0 -109 -71 -226.5t-139 -117.5v43q73 43 87 190q0 119 -129 161z" />
<glyph unicode="-" horiz-adv-x="432" d="M-3 437v83q0 29 41 29h356q41 0 41 -29v-83q0 -28 -40 -28h-358q-40 0 -40 28z" />
<glyph unicode="." horiz-adv-x="452" d="M0 126q0 52 37 89t89 37t89 -37t37 -89q0 -53 -37 -89.5t-89 -36.5t-89 36.5t-37 89.5z" />
<glyph unicode="/" horiz-adv-x="575" d="M13 -50l541 1484h80l-541 -1484h-80z" />
<glyph unicode="0" horiz-adv-x="1551" d="M199 676v156q0 445 308 604q114 56 252 56h12q8 -1 8 -8v-32q0 -123 -188 -184q-188 -122 -188 -360v-368q0 -220 212 -320q76 -28 152 -28h44q225 0 320 196q24 68 24 132v380q0 209 -152 348q-79 52 -168 52h-48v4q60 53 60 120v68h4q170 0 348 -148q160 -162 160 -408 v-420q0 -206 -152 -388q-138 -128 -328 -128h-160q-239 0 -412 228q-108 170 -108 448z" />
<glyph unicode="1" horiz-adv-x="934" d="M199 980v244q16 20 336 272h188q8 -1 8 -8v-1480q0 -8 -8 -8h-180q-8 0 -8 8v1232h-4l-324 -260h-8z" />
<glyph unicode="2" horiz-adv-x="1324" d="M152 8v228q0 146 168 320q128 106 244 152q304 144 364 220q52 68 52 140v24q0 149 -152 204q-32 8 -68 8h-552q-8 0 -8 8v160q1 8 8 8q298 4 496 4h16q208 0 348 -168q72 -103 72 -244v-20q0 -246 -444 -456q-186 -99 -264 -168q-84 -72 -84 -292v-128q0 -8 -8 -8h-180 q-8 0 -8 8zM408 8v160q1 8 8 8h708q8 -1 8 -8v-160q0 -8 -8 -8h-708q-8 0 -8 8z" />
<glyph unicode="3" horiz-adv-x="1134" d="M100 8v164q1 8 8 8h460q127 0 192 -164q-35 -16 -124 -16h-528q-8 0 -8 8zM100 1324v164q1 8 8 8h460q298 0 404 -244q16 -66 16 -116v-24q0 -242 -140 -324q188 -166 188 -344v-32q0 -224 -208 -372h-4q-58 144 -124 144v8q56 0 120 120q16 77 16 112q0 187 -144 240 q-30 8 -56 8h-444q-8 0 -8 8v164q1 8 8 8h388q149 0 208 128q16 57 16 100v36q0 144 -144 192q-32 8 -68 8h-484q-8 0 -8 8z" />
<glyph unicode="4" horiz-adv-x="1172" d="M95 396v120q0 20 216 308q418 590 484 672h276q8 -1 8 -8v-988h-8q-82 116 -172 116q-16 8 -16 12v656q-24 -28 -508 -716h416q206 0 268 -168q20 -62 20 -124v-268q0 -8 -8 -8h-180q-8 0 -8 8v236q0 144 -104 144h-676q-8 0 -8 8z" />
<glyph unicode="5" horiz-adv-x="1114" d="M100 8v164q1 8 8 8h460q222 0 272 204v76q0 171 -128 232q-35 12 -80 12h-480q-8 0 -8 8v292q0 8 12 8q144 0 184 -112v-20h324q155 0 276 -124q100 -117 100 -308v-8q0 -300 -284 -408q-107 -32 -228 -32h-420q-8 0 -8 8zM144 1084v404q1 8 8 8h768q8 -1 8 -8v-164 q0 -8 -8 -8h-580v-320h-8q0 66 -176 80h-4q-8 0 -8 8z" />
<glyph unicode="6" horiz-adv-x="1300" d="M100 524v80q0 241 236 488q82 104 396 404h272q8 -1 8 -8q-652 -625 -652 -672q-64 -81 -64 -272v-8q0 -237 168 -320q79 -32 156 -32h24q267 0 348 240q8 60 8 72q0 243 -228 312q-63 16 -160 20q-104 -4 -176 -20v4q3 11 184 196h40q386 0 500 -280q36 -99 36 -228 q0 -362 -352 -472q-60 -20 -220 -28q-388 0 -500 356q-24 88 -24 168z" />
<glyph unicode="7" horiz-adv-x="1177" d="M100 1320v168q1 8 8 8h964q8 -1 8 -8v-168q0 -8 -8 -8h-964q-8 0 -8 8zM324 8v228q0 396 368 784q117 150 148 236h208q8 -1 8 -8q-32 -145 -304 -440q-228 -312 -228 -520v-280q0 -8 -8 -8h-184q-8 0 -8 8z" />
<glyph unicode="8" horiz-adv-x="1281" d="M100 408v12q0 284 264 388q138 52 384 52q64 9 148 68q64 77 64 160q-4 7 -4 16l4 8q0 136 -168 192q-80 16 -140 16q-316 0 -316 -208q0 -139 144 -212v-8q-62 0 -208 -64q-124 113 -124 272q0 270 196 348q131 48 332 48q379 0 464 -264q12 -63 12 -104v-52 q0 -282 -292 -372q-98 -28 -324 -28q-120 -24 -180 -84q-64 -74 -64 -172q0 -236 372 -236q336 0 336 236q0 145 -152 208v8q74 9 192 76q148 -73 148 -292v-20q0 -400 -544 -400q-414 0 -508 208q-36 92 -36 200z" />
<glyph unicode="9" horiz-adv-x="1304" d="M104 972v48q0 286 276 424q135 52 292 52q367 0 488 -312q40 -104 40 -252q0 -253 -152 -424q-55 -91 -480 -508h-280v4q664 649 664 692q52 104 52 260q0 249 -184 332q-76 24 -136 24h-44q-223 0 -320 -200q-20 -45 -20 -104v-16q0 -231 216 -300q49 -16 168 -24 q89 4 180 20v-4l-184 -196h-28q-431 0 -528 320q-20 89 -20 164z" />
<glyph unicode=":" horiz-adv-x="447" d="M-5 131q0 52 37 89t89 37t89 -37t37 -89q0 -53 -37 -89.5t-89 -36.5t-89 36.5t-37 89.5zM-5 820q0 52 37 89t89 37t89 -37t37 -89q0 -53 -37 -89.5t-89 -36.5t-89 36.5t-37 89.5z" />
<glyph unicode=";" horiz-adv-x="518" d="M4 162q0 37 30.5 63.5t73.5 26.5q44 0 74.5 -26.5t30.5 -63.5t-30.5 -63.5t-74.5 -26.5q-43 0 -73.5 26.5t-30.5 63.5zM35 216q0 16 30 27.5t73 11.5q42 0 72 -11.5t30 -27.5t-30 -27.5t-72 -11.5q-43 0 -73 11.5t-30 27.5zM47 820q0 52 37 89t89 37t89 -37t37 -89 q0 -53 -37 -89.5t-89 -36.5t-89 36.5t-37 89.5zM73 78v42l119 125q44 0 88.5 -65.5t44.5 -151.5q0 -109 -71 -226.5t-139 -117.5v43q73 43 87 190q0 119 -129 161z" />
<glyph unicode="&#x3c;" horiz-adv-x="1027" d="M-3 674v83l663 382l177 102v-167l-91 -52l-534 -307l625 -355v-167z" />
<glyph unicode="=" horiz-adv-x="998" d="M6 491v140h840v-140h-840zM6 803v140h840v-140h-840z" />
<glyph unicode="&#x3e;" horiz-adv-x="1050" d="M6 193v167l625 355l-625 359v167l840 -484v-83z" />
<glyph unicode="?" horiz-adv-x="718" d="M4 1266v64q128 104 242 104q132 0 212 -68t80 -182q0 -69 -32.5 -140t-124.5 -186q-90 -113 -141.5 -187.5t-51.5 -142.5q0 -63 35 -189h-47q-50 138 -50 211q0 109 116.5 312t116.5 309q0 82 -47 129t-130 47q-84 0 -178 -81zM91 131q0 52 37 89t89 37t89 -37t37 -89 q0 -53 -37 -89.5t-89 -36.5t-89 36.5t-37 89.5z" />
<glyph unicode="@" horiz-adv-x="1374" d="M0 508q0 358 240 468q72 20 132 24v-4l8 4q4 0 4 -4q4 0 4 4q274 0 356 -312q24 -99 60 -380q28 -104 80 -104q75 0 88 116v496q0 380 -216 492q-121 64 -356 64h-304q-8 0 -8 8v176q1 8 8 8h308q570 0 696 -348q68 -137 68 -408v-412q0 -396 -292 -396q-178 0 -248 216 q-28 84 -60 360q-40 216 -168 216h-32q-145 0 -168 -232v-64q0 -211 148 -264q42 -12 84 -12h104q8 -4 40 -108q28 -48 72 -92v-4h-220q-271 0 -392 268q-36 116 -36 224z" />
<glyph unicode="A" horiz-adv-x="1540" d="M-57 4q84 295 157 388q86 131 245 184q77 16 180 16h350q-249 666 -273 737h-4q-233 -634 -257 -689q-116 -22 -209 -108v4q0 8 333 953l8 4h273q20 -30 290 -789q8 -9 257 -700l-8 -4h-193q-8 0 -153 412h-470q-208 0 -293 -268q-20 -49 -40 -140l-8 -4h-177z" />
<glyph unicode="B" horiz-adv-x="1298" d="M0 592q0 157 132 240q66 32 124 32q207 -8 328 -8q198 0 248 132q20 30 20 84v32q0 149 -156 196q-70 16 -280 16h-216v-396q0 -6 -72 -24q-91 -42 -112 -104q-4 -8 -4 -12h-8v704q1 8 8 8h568q342 0 440 -244q28 -62 28 -132v-4q0 -286 -204 -384q-117 -44 -356 -44 h-208q-80 0 -80 -80v-428h216q327 0 364 32q136 69 136 224q0 130 -108 208v4q76 18 148 76q56 0 120 -164q16 -67 16 -132v-8q0 -205 -196 -356q-110 -60 -320 -60h-564q-8 0 -8 8v520q0 23 -4 64z" />
<glyph unicode="C" horiz-adv-x="1198" d="M0 736v84l4 8q68 -9 144 -88q60 -66 60 -180q48 -210 144 -288q120 -96 252 -96q56 4 96 4h296q8 -1 8 -8v-164q0 -8 -8 -8h-408q-419 0 -548 384q-40 135 -40 352zM8 912v8q0 203 140 392q157 180 436 180h412q8 -1 8 -8v-160q0 -8 -8 -8h-344q-293 0 -396 -228 q-60 -150 -60 -300h-8q0 23 -92 92q-43 23 -88 32z" />
<glyph unicode="D" horiz-adv-x="1359" d="M0 8v1476q1 8 8 8h576q394 0 532 -376q40 -142 40 -340v-52q0 -553 -344 -680q-101 -44 -244 -44h-96q-8 0 -8 8q0 138 100 184q180 45 240 100q156 131 156 436v32q0 556 -452 556h-312v-1136h8q82 0 248 4v-4q-60 -54 -60 -176l-8 -4h-376q-8 0 -8 8z" />
<glyph unicode="E" horiz-adv-x="1150" d="M0 8v544q0 220 188 292q76 32 144 32h560q8 -1 8 -8v-160q0 -8 -8 -8h-532q-111 0 -148 -68q-12 -43 -12 -84v-368h736q8 -1 8 -8v-164q0 -8 -8 -8h-928q-8 0 -8 8zM0 780v704q1 8 8 8h928q8 -1 8 -8v-160q0 -8 -8 -8h-736v-376q-1 -7 -108 -60q-84 -66 -84 -100h-8z" />
<glyph unicode="F" horiz-adv-x="1198" d="M0 8v568q0 208 228 280q66 20 172 20h548q8 -1 8 -8v-160q0 -8 -8 -8h-584q-168 0 -168 -140v-552q0 -8 -8 -8h-180q-8 0 -8 8zM0 780v704q1 8 8 8h984q8 -1 8 -8v-148q0 -8 -8 -8h-796v-400q0 -5 -80 -32q-108 -77 -108 -116h-8z" />
<glyph unicode="G" horiz-adv-x="1298" d="M0 736v24q0 519 280 660q103 76 408 76h308q8 -1 8 -8v-164q0 -8 -8 -8h-372q-292 0 -392 -288q-36 -125 -36 -280q0 -456 292 -552q66 -16 116 -16h284q129 0 212 -176l-8 -4h-476q-420 0 -552 324q-64 135 -64 412zM904 268v612q1 8 8 8h180q8 -1 8 -8v-744h-8 q-39 78 -140 116q-48 10 -48 16z" />
<glyph unicode="H" horiz-adv-x="1374" d="M0 8v584q0 209 216 276q52 4 84 4h676v616q1 8 8 8h184q8 -1 8 -8v-1480q0 -8 -8 -8h-184q-8 0 -8 8v660h-684q-92 0 -92 -52q-4 -4 -4 -32v-576q0 -8 -8 -8h-180q-8 0 -8 8zM0 804v684q1 8 8 8h180q8 -1 8 -8v-540q-1 -8 -84 -36q-57 -32 -108 -108h-4z" />
<glyph unicode="I" horiz-adv-x="399" d="M0 8v1208l4 8q196 -30 196 -168v-1048q0 -8 -8 -8h-184q-8 0 -8 8zM0 1312v176q1 8 8 8h184q8 -1 8 -8v-272h-4q-72 88 -192 88z" />
<glyph unicode="J" horiz-adv-x="898" d="M0 8v164q1 8 8 8h200q249 0 292 300q4 28 4 80v656q1 8 8 8q188 -31 188 -172v-544q0 -314 -212 -460q-80 -48 -208 -48h-272q-8 0 -8 8zM504 1312v176q1 8 8 8h180q8 -1 8 -8v-272h-8q-60 88 -184 88z" />
<glyph unicode="K" horiz-adv-x="1383" d="M0 8v364q0 247 272 520q590 604 596 604h260q8 -1 8 -8q-533 -545 -600 -620v-4l652 -860l-8 -4h-244l-544 720q-196 -155 -196 -356v-356q0 -8 -8 -8h-180q-8 0 -8 8zM0 656v832q1 8 8 8h180q8 -1 8 -8v-600q-148 -129 -168 -196q-20 -26 -20 -36h-8z" />
<glyph unicode="L" horiz-adv-x="1141" d="M0 8v1480q1 8 8 8h184q8 -1 8 -8v-1308h436q125 0 208 -180h-836q-8 0 -8 8zM816 172v8h128q8 -1 8 -8v-160h-8q-85 160 -128 160z" />
<glyph unicode="M" horiz-adv-x="1588" d="M5 8v644l4 8q62 0 152 -96q44 -62 44 -84v-472q0 -8 -8 -8h-184q-8 0 -8 8zM5 752v736q1 8 8 8h328q19 -22 192 -512q132 -348 164 -448h4q244 673 352 960h332q8 -1 8 -8v-664h-4q-101 124 -192 124l-4 8v384h-4q0 -11 -352 -984h-268q-15 9 -88 224q-272 753 -272 760 h-4v-720h-4q-73 96 -164 120q-32 0 -32 12zM1193 8v848q0 8 12 8q61 0 156 -112q32 -51 32 -76v-668q0 -8 -8 -8h-184q-8 0 -8 8z" />
<glyph unicode="N" horiz-adv-x="1402" d="M0 8v1480q1 8 8 8h316q10 -5 176 -324q32 -60 32 -72h-4q-73 36 -132 36h-20q-22 0 -76 -12l-96 188h-4v-1304q0 -8 -8 -8h-184q-8 0 -8 8zM344 1048q30 8 56 8h4q128 0 204 -92q360 -688 388 -748h4v1272q1 8 8 8h184q8 -1 8 -8v-1480q0 -8 -8 -8h-300q-32 48 -540 1028 q-7 0 -8 20z" />
<glyph unicode="O" horiz-adv-x="1554" d="M0 592v304q0 312 272 504q175 96 400 96q8 -15 8 -32v-12q0 -131 -132 -156q-176 -47 -264 -160q-88 -143 -88 -308v-164q0 -241 160 -408q85 -76 212 -76h184q205 0 332 216q64 127 64 272v216q0 231 -208 360q-107 52 -212 52h-32v12q56 35 56 184q4 0 4 4 q184 0 388 -136q204 -155 204 -524v-124q0 -508 -356 -672q-100 -40 -272 -40h-124q-306 0 -492 240q-104 153 -104 352z" />
<glyph unicode="P" horiz-adv-x="1198" d="M0 8v368q0 152 192 220q86 19 364 48q165 42 228 140q44 86 44 196q0 237 -188 320q-47 16 -72 16h-372v-636q-11 -7 -88 -36q-52 -32 -104 -80h-4v924q1 8 8 8h584q260 0 384 -264q36 -116 36 -208v-60q0 -339 -284 -468q-68 -31 -396 -56q-136 -31 -136 -116v-316 q0 -8 -8 -8h-180q-8 0 -8 8z" />
<glyph unicode="Q" horiz-adv-x="1535" d="M0 610v268q0 483 468 600q61 12 116 12h164q399 0 540 -352q60 -167 60 -332v-188q0 -461 -440 -600l-108 -20l-4 8v12q0 124 -108 168h-4v8h12q351 0 444 348q8 32 8 68v220q0 308 -244 444q-82 36 -148 36h-200q-269 0 -352 -388q-4 -34 -4 -56v-236q0 -217 168 -356 q70 -48 196 -84q70 -10 132 -80q56 -83 56 -156v-348q0 -8 -8 -8h-176q-8 0 -8 8v192q0 157 -24 180q-28 32 -192 76q-191 89 -284 276q-60 145 -60 280z" />
<glyph unicode="R" horiz-adv-x="1298" d="M0 8v456q0 178 176 244q54 23 368 48q284 46 284 260v20q0 199 -184 268q-58 12 -92 12h-352v-528q-1 -6 -88 -28q-51 -25 -108 -88h-4v816q1 8 8 8h516q361 0 468 -284q24 -73 24 -180v-72q0 -245 -284 -340l364 -616l-8 -4h-216q-22 25 -348 580h-4q-320 -33 -320 -124 v-448q0 -8 -8 -8h-184q-8 0 -8 8z" />
<glyph unicode="S" horiz-adv-x="1198" d="M0 1056v56q0 253 224 356q85 28 204 28h248q130 0 216 -176l-8 -4h-452q-175 0 -236 -124q-12 -50 -12 -88v-24q0 -150 292 -232q100 -81 100 -192q-8 -4 -12 -4q-282 0 -464 140q-100 78 -100 264zM20 8v88q1 8 8 8q59 -24 84 -92v-8l-8 -4h-76q-8 0 -8 8zM32 172v8h524 q252 36 252 248q0 153 -172 212q0 125 -80 204h-4v8q214 -35 336 -128q120 -97 120 -288q0 -301 -304 -408q-87 -28 -172 -28h-352q-5 0 -36 76q-60 84 -112 96zM820 1488v8h64q8 -1 8 -8v-60h-8q-35 60 -64 60z" />
<glyph unicode="T" horiz-adv-x="1350" d="M0 1324v164q1 8 8 8h464q141 0 180 -64q28 -46 28 -116v-1308q0 -8 -8 -8h-180q-8 0 -8 8v1308h-476q-8 0 -8 8zM656 1488v8h496q8 -1 8 -8v-164q0 -8 -8 -8h-400q-7 0 -24 96q-33 76 -72 76z" />
<glyph unicode="U" horiz-adv-x="1402" d="M0 468v192q1 8 8 8q149 -53 180 -120q11 -24 20 -124q51 -128 156 -176q97 -44 240 -44q315 0 392 208q16 47 20 128q41 77 184 128h8l4 -8v-164q0 -311 -320 -452q-133 -44 -292 -44q-443 0 -576 336q-24 80 -24 132zM0 756v732q1 8 8 8h180q8 -1 8 -8v-844h-8 q0 48 -164 104q-24 0 -24 8zM1012 640v848q1 8 8 8h184q8 -1 8 -8v-732q0 -6 -72 -20q-101 -45 -120 -96h-8z" />
<glyph unicode="V" horiz-adv-x="1535" d="M0 1492l8 4h192q12 0 144 -416l316 -932h4l120 368h12q124 -96 124 -220q-96 -296 -104 -296h-312q-8 0 -252 744q-120 345 -252 748zM816 604q276 828 300 892h196q8 -1 8 -8l-356 -1064h-8q-43 130 -140 180z" />
<glyph unicode="W" horiz-adv-x="1801" d="M0 1492l8 4h184q12 0 44 -312q8 -40 128 -992h4q76 313 92 348q164 -49 164 -104v-8q0 -28 -104 -428h-332q-14 0 -52 384q-12 73 -136 1108zM480 612v8q180 702 188 712h272q11 0 72 -252q204 -791 228 -892h4q4 62 104 852h4q176 -47 176 -152q-88 -786 -108 -888h-324 q-9 0 -72 276q-5 1 -216 864h-4q-116 -474 -156 -628h-4q0 51 -164 100zM1356 1108q44 388 56 388h184l8 -4q-60 -485 -60 -504h-8q0 66 -176 112z" />
<glyph unicode="X" horiz-adv-x="1521" d="M0 0v4q515 719 564 776q74 56 112 56h28q78 0 204 -200q425 -581 456 -636h-236l-448 612q-386 -542 -444 -612h-236zM40 1500l8 4h228q27 -27 392 -536q12 -16 16 -16q395 547 404 552h236v-4q-456 -636 -492 -676q-68 68 -148 68q-71 0 -148 -68h-4q-19 19 -492 676z " />
<glyph unicode="Y" horiz-adv-x="1450" d="M0 1492l8 4h244q12 -7 424 -612q124 -175 124 -332v-544q0 -8 -8 -8h-184q-8 0 -8 8v552q0 144 -316 540zM752 892q380 560 420 604h236q8 -1 8 -8l-576 -780h-4q0 71 -84 184z" />
<glyph unicode="Z" horiz-adv-x="1236" d="M0 8v100q0 207 96 332q0 9 236 296l460 576v4h-772q-8 0 -8 8v164q1 8 8 8h1016q8 -1 8 -8v-168q-748 -912 -808 -992q-36 -75 -36 -144v-176q0 -8 -8 -8h-184q-8 0 -8 8zM256 8v164q1 8 8 8h760q8 -1 8 -8v-164q0 -8 -8 -8h-760q-8 0 -8 8z" />
<glyph unicode="[" horiz-adv-x="500" d="M4 0v1445h160v-1h135v-141h-135v-1165h135v-138h-295z" />
<glyph unicode="\" horiz-adv-x="569" d="M13 1434h80l541 -1484h-80z" />
<glyph unicode="]" horiz-adv-x="494" d="M4 -5v138h135v1165h-135v141h135v1h160v-1445h-295z" />
<glyph unicode="^" horiz-adv-x="684" d="M4 1022l201 412h102l201 -412h-50l-202 251l-202 -251h-50z" />
<glyph unicode="_" horiz-adv-x="1024" d="M0 -100h1024v-60h-1024v60z" />
<glyph unicode="`" horiz-adv-x="656" d="M-7 1363q0 31 20.5 51t53.5 20q20 0 40.5 -12t55.5 -47l291 -296h-69l-330 202q-31 20 -46.5 40t-15.5 42z" />
<glyph unicode="a" horiz-adv-x="1041" d="M0 332v36q0 267 348 332q84 12 256 20q44 23 44 80q-7 72 -64 72h-484q-8 0 -8 8v164q1 8 8 8h504q179 0 232 -172q12 -71 12 -100q0 -175 -180 -228q-45 -16 -308 -32q-81 -15 -140 -80q-24 -45 -24 -88q0 -141 96 -172h356v292q1 7 100 36q92 49 92 92h8v-592 q0 -8 -8 -8h-480q-253 0 -328 172q-32 79 -32 160z" />
<glyph unicode="b" horiz-adv-x="1127" d="M0 8v888h4q103 -84 192 -84q4 -312 4 -488v-144h316q167 0 220 244q8 77 8 124q0 240 -160 304q-42 12 -84 12h-212q-214 0 -276 120q-12 19 -12 60v444q1 8 8 8h180q8 -1 8 -8v-348q0 -73 52 -92q54 -8 116 -8h168q276 0 384 -316q24 -81 24 -148v-60q0 -304 -228 -460 q-104 -56 -296 -56h-408q-8 0 -8 8z" />
<glyph unicode="c" horiz-adv-x="898" d="M0 532q4 48 8 52q192 -37 192 -128q0 -229 164 -272q27 -4 44 -4h292q8 -1 8 -8v-164q0 -8 -8 -8h-236q-319 0 -408 208q-56 112 -56 324zM8 652q0 186 152 324q105 76 264 76h276q8 -1 8 -8v-164q0 -8 -8 -8h-264q-188 0 -232 -236q-4 -44 -4 -76h-8q0 42 -160 80 q-24 0 -24 12z" />
<glyph unicode="d" horiz-adv-x="1136" d="M0 548q0 287 212 436q94 56 192 56h172q164 0 164 56q4 0 4 12v380q1 8 8 8h184q8 -1 8 -8v-416q0 -149 -136 -184q-69 -24 -156 -24h-212q-171 0 -228 -184q-12 -70 -12 -108v-56q0 -258 172 -328q30 -8 56 -8h316v628q0 6 88 20q63 28 108 72l4 -8v-884q0 -8 -8 -8 h-400q-293 0 -392 128q-144 150 -144 420z" />
<glyph unicode="e" horiz-adv-x="1127" d="M0 444q0 124 108 160q38 8 60 8h560v8q0 172 -164 240q-56 12 -92 12h-32q-189 0 -244 -148q-3 -56 -12 -56h-4q-139 0 -172 -84h-8v4q0 219 156 368q114 96 288 96h4q329 0 440 -264q40 -110 40 -220v-128q0 -8 -8 -8h-720v-4q0 -183 136 -240q17 -8 64 -8h396 q8 -1 8 -8v-164q0 -8 -8 -8h-404q-260 0 -356 224q-36 88 -36 220z" />
<glyph unicode="f" horiz-adv-x="599" d="M0 8v832q0 172 196 240q43 8 92 8h140q8 -1 8 -8v-164q0 -8 -8 -8h-148q-84 0 -84 -84v-816q0 -8 -8 -8h-180q-8 0 -8 8zM0 996v264q0 169 196 232q47 16 240 16h20q8 -1 8 -8v-164q0 -8 -8 -8h-152q-108 0 -108 -104v-84q0 -7 -112 -52q-76 -60 -76 -92h-8z" />
<glyph unicode="g" horiz-adv-x="1193" d="M-5 535q0 403 340 536q91 28 156 28h492q8 -1 8 -8v-960h-8q0 67 -160 136q-28 10 -28 16v636h-304q-170 0 -268 -196q-28 -89 -28 -188q0 -224 248 -296q63 -12 104 -12h144q210 0 284 -192q16 -64 16 -128v-12q0 -207 -176 -284q-63 -16 -112 -16h-544q-8 0 -8 8v164 q1 8 8 8h460q140 0 172 104q0 28 4 32q0 92 -100 128q-38 8 -60 8h-120q-335 0 -480 276q-40 117 -40 212z" />
<glyph unicode="h" horiz-adv-x="1031" d="M0 8v904h8q0 -78 156 -100q28 0 28 -8v-796q0 -8 -8 -8h-176q-8 0 -8 8zM0 1076v412q1 8 8 8h176q8 -1 8 -8v-352q0 -92 104 -92h136q282 0 372 -220q28 -68 28 -144v-672q0 -8 -8 -8h-180q-8 0 -8 8v604q0 193 -128 240q-45 12 -72 12h-228q-208 0 -208 212z" />
<glyph unicode="i" horiz-adv-x="399" d="M3 7v729q0 90 156 118l40 3l4 -7v-843q0 -7 -8 -7h-184q-8 0 -8 7zM3 850v189q1 7 8 7h184q8 -1 8 -7v-120q0 -7 -8 -7h-4q-124 0 -180 -62h-8z" />
<glyph unicode="j" horiz-adv-x="599" d="M-302 -206q1 8 8 8h208q219 0 280 308q4 38 4 72v824l4 8q196 -35 196 -196v-616q-12 -490 -292 -592q-54 -16 -108 -16h-292q-8 0 -8 8v192zM198 1102v216q1 8 8 8h184q8 -1 8 -8v-316h-8q-18 48 -108 80q-84 11 -84 20z" />
<glyph unicode="k" horiz-adv-x="1298" d="M0 8v288q0 254 376 528q74 70 488 416h272v-4l-600 -516q629 -685 652 -716v-4h-248q-27 23 -544 600q-200 -116 -200 -336v-256q0 -8 -8 -8h-180q-8 0 -8 8zM0 536v964q1 8 8 8h184q8 -1 8 -8v-724q-167 -145 -176 -204q-16 -18 -16 -36h-8z" />
<glyph unicode="l" horiz-adv-x="399" d="M0 8v1492h4q14 -10 192 -216v-1276q0 -8 -8 -8h-180q-8 0 -8 8z" />
<glyph unicode="m" horiz-adv-x="1630" d="M0 8v1036q1 8 8 8h396q231 0 372 -184q56 -91 56 -244v-616q0 -8 -8 -8h-184q-8 0 -8 8v604q0 213 -192 260q-38 4 -72 4h-172v-868q0 -8 -8 -8h-180q-8 0 -8 8zM664 1044v8h404q197 0 316 -172q52 -91 52 -212v-660q0 -8 -8 -8h-180q-8 0 -8 8v620q0 210 -172 244 q-19 4 -52 4h-164q-37 66 -92 120q-70 48 -96 48z" />
<glyph unicode="n" horiz-adv-x="1031" d="M0 8v1036q1 8 8 8h396q223 0 368 -176q60 -100 60 -240v-628q0 -8 -8 -8h-184q-8 0 -8 8v608q0 186 -160 248q-39 12 -104 12h-172v-868q0 -8 -8 -8h-180q-8 0 -8 8z" />
<glyph unicode="o" horiz-adv-x="1127" d="M0 484v88q0 312 224 424q117 52 248 52q8 -18 8 -40q0 -104 -68 -136q-108 -24 -140 -48q-72 -59 -72 -212v-168q0 -201 144 -260l40 -4h160q132 0 192 172q12 64 12 124v120q0 193 -160 260q-43 12 -96 16v4q40 36 40 120q0 7 -4 48q4 0 4 4q153 0 304 -124 q108 -121 108 -280v-188q0 -248 -180 -392q-89 -64 -236 -64h-124q-233 0 -352 200q-52 88 -52 284z" />
<glyph unicode="p" horiz-adv-x="1107" d="M0 46q0 137 216 172q35 4 60 4h216q252 0 252 320q0 259 -140 344q-50 20 -80 20h-324v-628q0 -6 -76 -16q-64 -23 -120 -72h-4v888q1 8 8 8h420q347 0 448 -240q68 -141 68 -304q0 -273 -196 -428q-102 -68 -212 -68h-204q-136 0 -136 -84q4 -71 4 -116v-248q0 -8 -8 -8 h-184q-8 0 -8 8v448z" />
<glyph unicode="q" horiz-adv-x="1141" d="M0 543q0 355 248 500q95 48 268 48h420q8 -1 8 -8v-888h-4q-99 84 -196 84v632h-324q-160 0 -212 -248q-8 -54 -8 -116v-8q0 -234 160 -300q40 -12 92 -12h216q192 0 264 -116q12 -36 12 -60v-448q0 -8 -8 -8h-184q-8 0 -8 8v384q0 64 -144 64h-192q-269 0 -384 320 q-20 94 -24 172z" />
<glyph unicode="r" horiz-adv-x="694" d="M0 8v684q0 195 176 308q92 48 196 48h136q8 0 8 -12q-18 -164 -112 -164q-141 0 -196 -144q-12 -39 -12 -104v-616q0 -8 -8 -8h-180q-8 0 -8 8z" />
<glyph unicode="s" horiz-adv-x="898" d="M0 728v44q0 190 156 256q51 20 96 20h220q138 0 156 -172l-8 -4h-308q-116 0 -116 -100v-24q0 -102 136 -156q72 -69 72 -160q-4 0 -4 -4q-182 24 -284 84q-116 78 -116 216zM16 8v124q1 8 8 8q108 -32 108 -136l-8 -4h-100q-8 0 -8 8zM48 168v8h340q108 0 124 136v12 q0 76 -64 108q-26 164 -76 164v8q336 -65 336 -280v-32q0 -214 -244 -284q-30 -8 -56 -8h-228q-7 0 -16 72q-51 96 -116 96zM572 1040v8h48q8 -1 8 -8v-48h-8q0 24 -48 48z" />
<glyph unicode="t" horiz-adv-x="699" d="M0 8v972h4q83 -92 184 -92l8 -12v-868q0 -8 -8 -8h-180q-8 0 -8 8zM0 1148v348q1 8 8 8h180q8 -1 8 -8v-264q0 -108 128 -108h224q8 -1 8 -8v-164q0 -8 -8 -8h-308q-181 0 -232 152q-8 18 -8 52z" />
<glyph unicode="u" horiz-adv-x="1046" d="M0 344v120q1 8 8 8q136 0 188 -88q0 -128 72 -172q61 -32 140 -32h36q156 0 200 104q15 104 24 116q0 39 120 64l60 8l4 -8v-136q0 -152 -164 -268q-121 -60 -264 -60q-304 0 -404 232q-20 62 -20 112zM0 536v508q1 8 8 8h184q8 -1 8 -8v-588h-8q0 59 -180 72h-4 q-8 0 -8 8zM656 464v580q1 8 8 8h180q8 -1 8 -8v-508q0 -8 -12 -8q-141 0 -176 -64h-8z" />
<glyph unicode="v" horiz-adv-x="1131" d="M0 1048h4q37 0 196 4q20 -44 216 -612q-108 -29 -148 -96q-14 -48 -20 -48q-248 735 -248 752zM280 212v4q0 118 120 160q20 8 28 8q32 -88 32 -100h4q224 675 260 768h8q52 0 192 -4q0 -4 4 -4l-352 -1044h-220q-13 0 -76 212z" />
<glyph unicode="w" horiz-adv-x="1331" d="M0 1048l8 4h184q13 0 44 -304q4 -2 60 -472h4q20 104 32 104q172 -48 172 -96q-68 -277 -76 -284h-8q-35 0 -284 4q-9 0 -80 616q-4 10 -56 428zM340 432l128 504l8 4h260q11 0 48 -296q4 -5 56 -360h4q44 427 56 456h4q176 -43 176 -116q-68 -593 -76 -624l-20 4h-272 q-11 0 -52 316q-8 35 -56 344h-4q-24 -112 -80 -316h-8q-24 42 -172 84zM900 784q28 226 36 268h188q8 -1 8 -8q-40 -330 -40 -344h-4q-61 55 -188 84z" />
<glyph unicode="x" horiz-adv-x="1231" d="M0 1044v8h232q30 -34 276 -376h4q233 329 276 376h228q8 -1 8 -8l-412 -552q-61 -52 -108 -52q-88 0 -192 176q-14 14 -312 428zM24 8l344 468h4q69 -64 132 -64h8q64 0 128 64h4q309 -413 348 -472l-8 -4h-224q-37 41 -248 336h-4q-228 -320 -248 -336h-228q-8 0 -8 8z " />
<glyph unicode="y" horiz-adv-x="1264" d="M0 1086h208q7 0 108 -216q316 -685 340 -748q32 -84 32 -128q0 -201 -132 -332q-84 -72 -208 -72h-240q-8 0 -8 8v160q1 8 8 8h160q142 0 192 88q20 34 20 80v36q0 91 -172 444q-308 656 -308 672zM596 406q248 652 268 680h204v-4l-352 -916h-4q-21 32 -116 240z" />
<glyph unicode="z" horiz-adv-x="932" d="M0 8v168q0 207 196 388q18 26 268 304v4h-448q-8 0 -8 8v164q1 8 8 8h712q8 -1 8 -8v-156q0 -21 -128 -152l-368 -420q-40 -62 -40 -144v-164q0 -8 -8 -8h-184q-8 0 -8 8zM236 8v164q1 8 8 8h472q8 -1 8 -8v-164q0 -8 -8 -8h-472q-8 0 -8 8z" />
<glyph unicode="{" d="M240 638v60q172 5 223 71t51 133v468q0 74 77 141.5t185 67.5h108v-50h-90q-61 0 -107 -33.5t-47 -91.5v-500q0 -83 -60.5 -158.5t-142.5 -76.5v-2q82 -1 143 -76t61 -158l-1 -500q1 -58 47 -91.5t107 -33.5h90v-50h-108q-108 0 -184.5 67.5t-77.5 141.5v468 q0 66 -51 132t-223 71z" />
<glyph unicode="|" d="M427 -418v1995h160v-1995h-160z" />
<glyph unicode="}" d="M130 -192h90q61 0 107 33.5t47 91.5l-1 500q0 83 61 158t144 76v2q-83 1 -143.5 76.5t-60.5 158.5v500q-1 58 -47 91.5t-107 33.5h-90v50h108q108 0 185 -67.5t77 -141.5v-468q0 -67 51 -133t223 -71v-60q-172 -5 -223 -71t-51 -132v-468q-1 -74 -77.5 -141.5 t-184.5 -67.5h-108v50z" />
<glyph unicode="~" d="M94 556v156q64 73 123 99t114 26q64 0 181.5 -49.5t172.5 -49.5q52 0 108.5 28t129.5 112v-156q-63 -72 -122 -97.5t-116 -25.5q-60 0 -177.5 48.5t-176.5 48.5q-51 0 -107.5 -28t-129.5 -112z" />
<glyph unicode="&#xa1;" horiz-adv-x="456" d="M4 894q0 53 37 89.5t89 36.5t89 -36.5t37 -89.5q0 -52 -37 -89t-89 -37t-89 37t-37 89zM46 -415v1103h176v-1103h-176z" />
<glyph unicode="&#xa2;" horiz-adv-x="903" d="M0 532q4 48 8 52q192 -37 192 -128q0 -229 164 -272q27 -4 44 -4h292q8 -1 8 -8v-164q0 -8 -8 -8h-236q-319 0 -408 208q-56 112 -56 324zM8 652q0 186 152 324q105 76 264 76h276q8 -1 8 -8v-164q0 -8 -8 -8h-264q-188 0 -232 -236q-4 -44 -4 -76h-8q0 42 -160 80 q-24 0 -24 12zM55 -67l600 1259h54l-599 -1259h-55z" />
<glyph unicode="&#xa3;" d="M76 673v60h135q-58 143 -58 253q0 226 123.5 347t306.5 121h4q75 0 185.5 -14t110.5 -34v-161h-58q-5 61 -77 102q-72 31 -160 31h-2q-100 0 -190 -101q-84 -93 -84 -241q0 -15 1 -30q0 -135 53 -273h360v-60h-334q14 -30 31 -60q35 -63 35 -138q0 -161 -162 -375h402 q130 0 189 132l49 -1l-103 -231h-719l1 50q187 238 187 418q0 77 -34 143q-17 32 -31 62h-161z" />
<glyph unicode="&#xa4;" d="M122 413l118 117q-32 46 -48 103q-12 42 -12 84q0 44 13 87q16 55 47 99l-118 118l80 81l118 -118q44 30 99 46q44 14 89 14q41 0 83 -12q57 -17 102 -48l118 118l80 -81l-117 -117q31 -46 48 -102q12 -42 12 -85q0 -42 -12 -85q-17 -56 -48 -102l117 -117l-80 -81 l-118 118q-45 -32 -101 -48q-42 -12 -85 -12q-42 0 -85 12q-57 16 -102 48l-118 -118zM284 716q0 -28 9 -56q16 -59 57 -100q41 -40 99 -57q29 -8 58 -8t58 8q58 17 99 57q40 41 57 99q9 29 9 58t-9 58q-17 58 -57 99q-41 40 -100 57q-29 8 -58 8t-58 -9q-58 -17 -98 -56 q-39 -40 -56 -98q-10 -30 -10 -60z" />
<glyph unicode="&#xa5;" horiz-adv-x="1262" d="M8 1176q0 19 10.5 27.5t32.5 8.5q27 0 123 -8t164 -8h88q33 0 41 -6.5t8 -26.5q0 -8 -15 -14t-38 -6q-6 0 -18.5 2t-18.5 2q-24 0 -37.5 -9.5t-13.5 -25.5q0 -18 16.5 -52t46.5 -77l158 -221q13 -19 33 -53q41 -70 71 -70q9 0 16.5 5t14.5 15l277 396q8 12 13 26.5 t5 24.5q0 18 -10 27t-37 14q-15 2 -41 4q-47 3 -47 25q0 15 8 22.5t25 7.5q3 0 15 -1q56 -7 108 -7h139q30 0 65 1t37 1q11 0 18.5 -4.5t8.5 -11.5q0 -28 -38 -34q-18 -3 -27 -5q-63 -15 -147 -117q-7 -9 -12 -15l-169 -206h323q15 0 24 -6t9 -17q0 -15 -6 -20.5t-23 -5.5 h-366q-46 -57 -96.5 -112.5t-52.5 -59.5h511q18 0 25.5 -5.5t7.5 -17.5q0 -14 -7 -21t-22 -7h-530q0 -11 -1 -30.5t-1 -29.5l2 -215q0 -114 5.5 -150t20.5 -44q30 -17 107.5 -19t77.5 -31q0 -12 -10 -20t-25 -8q-2 0 -35.5 4t-64.5 4q-91 0 -208.5 -4t-142.5 -4q-31 0 -40 4 t-9 16t8 18.5t37 12.5q9 2 25 5q74 16 92 32q17 13 24 47t7 102l-2 242q0 19 -1.5 35t-4.5 32l-484 1q-14 0 -21 6.5t-7 19.5t6.5 19t21.5 6h467l-121 172h-344q-17 0 -23.5 5.5t-6.5 18.5q0 14 6 19.5t22 5.5h307q-43 57 -108 155q-131 197 -227 197q-7 0 -13 5.5t-6 11.5z " />
<glyph unicode="&#xa6;" d="M427 371h160v-789h-160v789zM427 789v789h160v-789h-160z" />
<glyph unicode="&#xa7;" d="M170 1130q0 148 89 237q82 79 216 86q8 1 17 1h3q66 0 163 -16.5t97 -41.5v-194h-51q-5 81 -80 132q-70 47 -149 51h-15q-78 0 -125 -44.5t-47 -117.5q0 -132 287 -269q149 -67 204.5 -143.5t55.5 -187.5q0 -171 -101 -282q-47 -39 -99 -64q108 -56 154 -118 q55 -77 55 -187q0 -171 -101 -283q-124 -102 -277 -105v1q-6 -1 -13 -1h-3q-66 0 -163 16.5t-97 41.5v194h51q5 -81 80 -132q68 -45 145 -50q113 6 185 69q72 64 72 165q0 125 -316 276q-123 64 -175.5 137t-52.5 177q0 148 89 237q67 65 170 82l-40 19q-123 64 -175.5 137 t-52.5 177zM297 571q0 -123 248 -250q56 16 97 53q73 65 73 166q0 5 -1 10h-2q-1 14 -4 27q-22 61 -113 127q-59 29 -126 29q-78 0 -125 -44.5t-47 -117.5z" />
<glyph unicode="&#xa8;" horiz-adv-x="1024" d="M202 1251q0 47 33.5 80.5t80.5 33.5t80.5 -33.5t33.5 -80.5t-33.5 -80.5t-80.5 -33.5t-80.5 33.5t-33.5 80.5zM568 1251q0 47 33.5 80.5t80.5 33.5t80.5 -33.5t33.5 -80.5t-33.5 -80.5t-80.5 -33.5t-80.5 33.5t-33.5 80.5z" />
<glyph unicode="&#xa9;" horiz-adv-x="1674" d="M100 718q0 148 55.5 283t159.5 238q102 104 238.5 160.5t286.5 56.5q145 0 280 -56.5t239 -160.5q102 -101 158.5 -238t56.5 -283q0 -147 -56.5 -282t-162.5 -240q-105 -105 -239 -159.5t-283 -54.5q-146 0 -278 55.5t-238 160.5q-106 104 -161.5 237.5t-55.5 282.5z M160 718q0 -137 51 -259t148 -219q98 -96 219 -147t256 -51q137 0 259.5 50.5t219.5 145.5q97 98 149 221.5t52 258.5q0 134 -52 259.5t-145 219.5q-96 96 -220 147.5t-258 51.5q-137 0 -262 -51.5t-220 -147.5t-146 -219.5t-51 -259.5zM434 732q4 48 8 52q192 -37 192 -128 q0 -229 164 -272q27 -4 44 -4h292q8 -1 8 -8v-164q0 -8 -8 -8h-236q-319 0 -408 208q-56 112 -56 324zM442 852q0 186 152 324q105 76 264 76h276q8 -1 8 -8v-164q0 -8 -8 -8h-264q-188 0 -232 -236q-4 -44 -4 -76h-8q0 42 -160 80q-24 0 -24 12z" />
<glyph unicode="&#xaa;" horiz-adv-x="841" d="M0 893v27q0 204 265 253q64 9 195 15q34 18 34 61q-6 55 -49 55h-369q-6 0 -6 6v125q1 6 6 6h384q136 0 177 -131q9 -54 9 -76q0 -133 -137 -173q-34 -13 -235 -25q-61 -11 -106 -61q-19 -34 -19 -67q0 -107 73 -131h272v223q0 5 76 27q70 37 70 70h6v-451q0 -6 -6 -6 h-366q-192 0 -250 131q-24 60 -24 122z" />
<glyph unicode="&#xab;" horiz-adv-x="944" d="M174 479l342 303h14v-37l-205 -266l205 -266v-37h-14zM487 479l342 303h14v-37l-205 -266l205 -266v-37h-14z" />
<glyph unicode="&#xac;" d="M87 667v100h840v-491l-1 -1h-98v392h-741z" />
<glyph unicode="&#xad;" horiz-adv-x="432" d="M-3 437v83q0 29 41 29h356q41 0 41 -29v-83q0 -28 -40 -28h-358q-40 0 -40 28z" />
<glyph unicode="&#xae;" horiz-adv-x="1674" d="M100 718q0 148 55.5 283t159.5 238q102 104 238.5 160.5t286.5 56.5q145 0 280 -56.5t239 -160.5q102 -101 158.5 -238t56.5 -283q0 -147 -56.5 -282t-162.5 -240q-105 -105 -239 -159.5t-283 -54.5q-146 0 -278 55.5t-238 160.5q-106 104 -161.5 237.5t-55.5 282.5z M160 718q0 -137 51 -259t148 -219q98 -96 219 -147t256 -51q137 0 259.5 50.5t219.5 145.5q97 98 149 221.5t52 258.5q0 134 -52 259.5t-145 219.5q-96 96 -220 147.5t-258 51.5q-137 0 -262 -51.5t-220 -147.5t-146 -219.5t-51 -259.5zM485 225v303q0 119 119 162 q37 16 250 32q193 31 193 173v13q0 133 -125 178q-39 8 -62 8h-239v-350q-1 -4 -60 -19q-35 -17 -73 -58h-3v542q1 5 5 5h351q245 0 317 -189q17 -48 17 -119v-48q0 -163 -193 -226l247 -409l-6 -3h-146q-15 17 -236 385h-3q-217 -22 -217 -82v-298q0 -5 -6 -5h-125 q-5 0 -5 5z" />
<glyph unicode="&#xaf;" horiz-adv-x="670" d="M0 1316v120h670v-120h-670z" />
<glyph unicode="&#xb0;" horiz-adv-x="674" d="M60 1164q0 116 81.5 197t197.5 81q115 0 196 -81.5t81 -196.5q0 -114 -82 -196t-197 -82q-117 0 -197 81t-80 197zM130 1163q0 -87 61 -147t148 -60t147 60t60 147t-60.5 148t-146.5 61t-147.5 -61t-61.5 -148z" />
<glyph unicode="&#xb1;" horiz-adv-x="1031" d="M-1 91v120h852v-120h-852zM4 649v135h351v352h138v-352h350v-135h-350v-350h-138v350h-351z" />
<glyph unicode="&#xb2;" horiz-adv-x="770" d="M4 603v129q0 82 94 180q72 60 138 86q171 81 205 124q29 38 29 79v13q0 84 -85 115q-18 5 -39 5h-311q-4 0 -4 4v90q0 5 4 5q168 2 280 2h9q117 0 196 -95q40 -58 40 -137v-12q0 -138 -250 -257q-105 -55 -149 -94q-47 -41 -47 -165v-72q0 -4 -5 -4h-101q-4 0 -4 4z M153 603v93q0 5 4 5h413q4 0 4 -5v-93q0 -4 -4 -4h-413q-4 0 -4 4z" />
<glyph unicode="&#xb3;" horiz-adv-x="722" d="M1 603v92q1 5 4 5h259q71 0 108 -93q-20 -9 -70 -9h-297q-4 0 -4 5zM1 1343v92q1 4 4 4h259q168 0 227 -137q9 -37 9 -65v-13q0 -137 -79 -183q106 -93 106 -193v-18q0 -126 -117 -209h-2q-33 81 -70 81v4q32 0 68 68q9 43 9 63q0 105 -81 135q-17 4 -32 4h-249 q-5 0 -5 5v92q1 4 5 4h218q84 0 117 72q9 32 9 57v20q0 81 -81 108q-18 4 -38 4h-273q-4 0 -4 5z" />
<glyph unicode="&#xb4;" horiz-adv-x="661" d="M7 1078l291 297q35 35 55.5 47t40.5 12q33 0 53.5 -20t20.5 -51q0 -22 -15.5 -42t-46.5 -40l-330 -203h-69z" />
<glyph unicode="&#xb5;" horiz-adv-x="1180" />
<glyph unicode="&#xb6;" horiz-adv-x="1024" d="M93 1086q0 157 107.5 253t285.5 96h443v-70h-127v-1365h-82v1365h-166v-1365h-84v738q-174 8 -275.5 102.5t-101.5 245.5z" />
<glyph unicode="&#xb7;" horiz-adv-x="508" d="M127 703q0 54 37.5 91.5t90.5 37.5q54 0 91.5 -37.5t37.5 -91.5q0 -53 -37.5 -90.5t-91.5 -37.5q-53 0 -90.5 37.5t-37.5 90.5z" />
<glyph unicode="&#xb8;" horiz-adv-x="1024" d="M360 -290q85 -52 152 -52q66 0 94.5 21.5t28.5 66.5t-49 64q-40 16 -102 16q-16 0 -34 -2l48 176h63l-37 -104q32 4 62 5q86 0 134 -40.5t48 -113.5q0 -76 -58.5 -120.5t-160.5 -44.5q-109 0 -189 32v96z" />
<glyph unicode="&#xb9;" horiz-adv-x="499" d="M6 1149v137q9 11 188 152h106q4 -1 4 -4v-830q0 -5 -4 -5h-101q-5 0 -5 5v690h-2l-182 -145h-4z" />
<glyph unicode="&#xba;" horiz-adv-x="851" d="M5 976v87q0 248 172 337q63 31 140 31h7q5 -1 5 -4v-18q0 -69 -105 -103q-105 -68 -105 -201v-205q0 -123 118 -178q42 -16 85 -16h24q126 0 179 109q13 38 13 74v212q0 116 -85 194q-44 29 -93 29h-27v2q33 30 33 67v38h3q94 0 194 -83q89 -90 89 -227v-234 q0 -115 -85 -217q-77 -71 -183 -71h-89q-133 0 -230 127q-60 95 -60 250z" />
<glyph unicode="&#xbb;" horiz-adv-x="944" d="M101 176v37l205 266l-205 266v37h14l342 -303l-342 -303h-14zM414 176v37l205 266l-205 266v37h14l342 -303l-342 -303h-14z" />
<glyph unicode="&#xbc;" horiz-adv-x="1226" d="M0 1258v99q6 8 135 109h76q3 0 3 -3v-596q0 -3 -3 -3h-73q-3 0 -3 3v496h-1l-131 -105h-3zM5 4l940 1461h84l-938 -1461h-86zM602 161v49q0 8 87 123q168 237 194 270h111q3 0 3 -3v-397h-3q-33 47 -69 47q-7 3 -7 5v263q-9 -11 -204 -288h167q83 0 108 -67q8 -25 8 -50 v-107q0 -4 -3 -4h-72q-4 0 -4 4v94q0 58 -41 58h-272q-3 0 -3 3z" />
<glyph unicode="&#xbd;" horiz-adv-x="1226" d="M0 1258v99q6 8 135 109h76q3 0 3 -3v-596q0 -3 -3 -3h-73q-3 0 -3 3v496h-1l-131 -105h-3zM5 4l940 1461h84l-938 -1461h-86zM596 3v91q0 59 67 128q52 43 98 61q122 58 146 88q21 28 21 56v10q0 60 -61 82q-13 3 -28 3h-221q-3 0 -3 3v64q1 3 3 3q120 2 199 2h6 q84 0 140 -67q29 -42 29 -98v-8q0 -99 -178 -183q-75 -39 -106 -67q-34 -29 -34 -117v-51q0 -3 -3 -3h-72q-3 0 -3 3zM702 3v66q0 4 3 4h293q4 -1 4 -4v-66q0 -3 -4 -3h-293q-3 0 -3 3z" />
<glyph unicode="&#xbe;" horiz-adv-x="1226" d="M1 863v66q0 3 3 3h185q50 0 76 -66q-14 -6 -49 -6h-212q-3 0 -3 3zM1 1390v66q0 3 3 3h185q119 0 161 -97q7 -27 7 -47v-9q0 -97 -56 -130q75 -67 75 -138v-13q0 -90 -83 -149h-2q-23 58 -50 58v3q23 0 48 48q7 31 7 45q0 75 -58 96q-12 3 -22 3h-178q-3 0 -3 3v66 q0 3 3 3h155q60 0 84 52q6 22 6 40v14q0 58 -58 77q-12 3 -27 3h-194q-3 0 -3 3zM5 4l940 1461h84l-938 -1461h-86zM602 161v49q0 8 87 123q168 237 194 270h111q3 0 3 -3v-397h-3q-33 47 -69 47q-7 3 -7 5v263q-9 -11 -204 -288h167q83 0 108 -67q8 -25 8 -50v-107 q0 -4 -3 -4h-72q-4 0 -4 4v94q0 58 -41 58h-272q-3 0 -3 3z" />
<glyph unicode="&#xbf;" horiz-adv-x="748" d="M3 -159q0 69 32.5 140t124.5 186q90 113 141.5 187.5t51.5 142.5q0 63 -35 189h47q50 -138 50 -211q0 -109 -116.5 -312t-116.5 -309q0 -82 47 -129t130 -47q84 0 178 81v-64q-128 -104 -242 -104q-132 0 -212 68t-80 182zM198 894q0 53 37 89.5t89 36.5t89 -36.5 t37 -89.5q0 -52 -37 -89t-89 -37t-89 37t-37 89z" />
<glyph unicode="&#xc0;" horiz-adv-x="1540" d="M0 4q84 295 156 388q86 131 244 184q77 16 180 16h348q-248 665 -272 736h-4q-232 -633 -256 -688q-115 -22 -208 -108v4q0 8 332 952l8 4h272q20 -30 288 -788q8 -9 256 -700l-8 -4h-192q-8 0 -152 412h-468q-207 0 -292 -268q-20 -49 -40 -140l-8 -4h-176zM227 1821 q0 31 20.5 51t53.5 20q20 0 40.5 -12t55.5 -47l291 -296h-69l-330 202q-31 20 -46.5 40t-15.5 42z" />
<glyph unicode="&#xc1;" horiz-adv-x="1540" d="M0 4q84 295 156 388q86 131 244 184q77 16 180 16h348q-248 665 -272 736h-4q-232 -633 -256 -688q-115 -22 -208 -108v4q0 8 332 952l8 4h272q20 -30 288 -788q8 -9 256 -700l-8 -4h-192q-8 0 -152 412h-468q-207 0 -292 -268q-20 -49 -40 -140l-8 -4h-176zM606 1548 l291 297q35 35 55.5 47t40.5 12q33 0 53.5 -20t20.5 -51q0 -22 -15.5 -42t-46.5 -40l-330 -203h-69z" />
<glyph unicode="&#xc2;" horiz-adv-x="1540" d="M0 4q84 295 156 388q86 131 244 184q77 16 180 16h348q-248 665 -272 736h-4q-232 -633 -256 -688q-115 -22 -208 -108v4q0 8 332 952l8 4h272q20 -30 288 -788q8 -9 256 -700l-8 -4h-192q-8 0 -152 412h-468q-207 0 -292 -268q-20 -49 -40 -140l-8 -4h-176zM368 1452 l232 355h118l232 -355h-58l-233 216l-233 -216h-58z" />
<glyph unicode="&#xc3;" horiz-adv-x="1540" d="M0 4q84 295 156 388q86 131 244 184q77 16 180 16h348q-248 665 -272 736h-4q-232 -633 -256 -688q-115 -22 -208 -108v4q0 8 332 952l8 4h272q20 -30 288 -788q8 -9 256 -700l-8 -4h-192q-8 0 -152 412h-468q-207 0 -292 -268q-20 -49 -40 -140l-8 -4h-176zM351 1827h51 q17 -73 75 -107t167 -34t166 33.5t74 107.5h51q-20 -133 -94 -201.5t-197 -68.5q-122 0 -197 69t-96 201z" />
<glyph unicode="&#xc4;" horiz-adv-x="1540" d="M0 4q84 295 156 388q86 131 244 184q77 16 180 16h348q-248 665 -272 736h-4q-232 -633 -256 -688q-115 -22 -208 -108v4q0 8 332 952l8 4h272q20 -30 288 -788q8 -9 256 -700l-8 -4h-192q-8 0 -152 412h-468q-207 0 -292 -268q-20 -49 -40 -140l-8 -4h-176zM353 1656 q0 47 33.5 80.5t80.5 33.5t80.5 -33.5t33.5 -80.5t-33.5 -80.5t-80.5 -33.5t-80.5 33.5t-33.5 80.5zM732 1656q0 47 33.5 80.5t80.5 33.5t80.5 -33.5t33.5 -80.5t-33.5 -80.5t-80.5 -33.5t-80.5 33.5t-33.5 80.5z" />
<glyph unicode="&#xc5;" horiz-adv-x="1540" d="M0 4q84 295 156 388q86 131 244 184q77 16 180 16h348q-248 665 -272 736h-4q-232 -633 -256 -688q-115 -22 -208 -108v4q0 8 332 952l8 4h272q20 -30 288 -788q8 -9 256 -700l-8 -4h-192q-8 0 -152 412h-468q-207 0 -292 -268q-20 -49 -40 -140l-8 -4h-176zM478 1721 q0 75 51 126t125 51q76 0 127.5 -51.5t51.5 -125.5q0 -75 -51.5 -126.5t-127.5 -51.5q-74 0 -125 51.5t-51 126.5zM554 1721q0 -42 29 -71t71 -29t71 29t29 71q0 40 -29.5 69.5t-70.5 29.5t-70.5 -29.5t-29.5 -69.5z" />
<glyph unicode="&#xc6;" horiz-adv-x="2118" d="M-57 4q84 295 157 388q86 131 245 184q77 16 180 16h350q-249 666 -273 737h-4q-233 -634 -257 -689q-116 -22 -209 -108v4q0 8 333 953l8 4h273q20 -30 290 -789q8 -9 257 -700l-8 -4h-193q-8 0 -153 412h-470q-208 0 -293 -268q-20 -49 -40 -140l-8 -4h-177zM1099 8 v544q0 220 188 292q76 32 144 32h560q8 -1 8 -8v-160q0 -8 -8 -8h-532q-111 0 -148 -68q-12 -43 -12 -84v-368h736q8 -1 8 -8v-164q0 -8 -8 -8h-928q-8 0 -8 8zM1099 780v704q1 8 8 8h928q8 -1 8 -8v-160q0 -8 -8 -8h-736v-376q-1 -7 -108 -60q-84 -66 -84 -100h-8z" />
<glyph unicode="&#xc7;" horiz-adv-x="1399" d="M0 736v84l4 8q68 -9 144 -88q60 -66 60 -180q48 -210 144 -288q120 -96 252 -96q56 4 96 4h296q8 -1 8 -8v-164q0 -8 -8 -8h-408q-419 0 -548 384q-40 135 -40 352zM8 912v8q0 203 140 392q157 180 436 180h412q8 -1 8 -8v-160q0 -8 -8 -8h-344q-293 0 -396 -228 q-60 -150 -60 -300h-8q0 23 -92 92q-43 23 -88 32zM360 -290q85 -52 152 -52q66 0 94.5 21.5t28.5 66.5t-49 64q-40 16 -102 16q-16 0 -34 -2l48 176h63l-37 -104q32 4 62 5q86 0 134 -40.5t48 -113.5q0 -76 -58.5 -120.5t-160.5 -44.5q-109 0 -189 32v96z" />
<glyph unicode="&#xc8;" horiz-adv-x="1151" d="M6 8v544q0 220 188 292q76 32 144 32h560q8 -1 8 -8v-160q0 -8 -8 -8h-532q-111 0 -148 -68q-12 -43 -12 -84v-368h736q8 -1 8 -8v-164q0 -8 -8 -8h-928q-8 0 -8 8zM6 780v704q1 8 8 8h928q8 -1 8 -8v-160q0 -8 -8 -8h-736v-376q-1 -7 -108 -60q-84 -66 -84 -100h-8z M227 1821q0 31 20.5 51t53.5 20q20 0 40.5 -12t55.5 -47l291 -296h-69l-330 202q-31 20 -46.5 40t-15.5 42z" />
<glyph unicode="&#xc9;" horiz-adv-x="1151" d="M6 8v544q0 220 188 292q76 32 144 32h560q8 -1 8 -8v-160q0 -8 -8 -8h-532q-111 0 -148 -68q-12 -43 -12 -84v-368h736q8 -1 8 -8v-164q0 -8 -8 -8h-928q-8 0 -8 8zM6 780v704q1 8 8 8h928q8 -1 8 -8v-160q0 -8 -8 -8h-736v-376q-1 -7 -108 -60q-84 -66 -84 -100h-8z M426 1548l291 297q35 35 55.5 47t40.5 12q33 0 53.5 -20t20.5 -51q0 -22 -15.5 -42t-46.5 -40l-330 -203h-69z" />
<glyph unicode="&#xca;" horiz-adv-x="1151" d="M5 8v544q0 220 188 292q76 32 144 32h560q8 -1 8 -8v-160q0 -8 -8 -8h-532q-111 0 -148 -68q-12 -43 -12 -84v-368h736q8 -1 8 -8v-164q0 -8 -8 -8h-928q-8 0 -8 8zM5 780v704q1 8 8 8h928q8 -1 8 -8v-160q0 -8 -8 -8h-736v-376q-1 -7 -108 -60q-84 -66 -84 -100h-8z M193 1532l232 355h118l232 -355h-58l-233 216l-233 -216h-58z" />
<glyph unicode="&#xcb;" horiz-adv-x="1151" d="M6 8v544q0 220 188 292q76 32 144 32h560q8 -1 8 -8v-160q0 -8 -8 -8h-532q-111 0 -148 -68q-12 -43 -12 -84v-368h736q8 -1 8 -8v-164q0 -8 -8 -8h-928q-8 0 -8 8zM6 780v704q1 8 8 8h928q8 -1 8 -8v-160q0 -8 -8 -8h-736v-376q-1 -7 -108 -60q-84 -66 -84 -100h-8z M168 1656q0 47 33.5 80.5t80.5 33.5t80.5 -33.5t33.5 -80.5t-33.5 -80.5t-80.5 -33.5t-80.5 33.5t-33.5 80.5zM547 1656q0 47 33.5 80.5t80.5 33.5t80.5 -33.5t33.5 -80.5t-33.5 -80.5t-80.5 -33.5t-80.5 33.5t-33.5 80.5z" />
<glyph unicode="&#xcc;" horiz-adv-x="401" d="M-305 1821q0 31 20.5 51t53.5 20q20 0 40.5 -12t55.5 -47l291 -296h-69l-330 202q-31 20 -46.5 40t-15.5 42zM1 8v1208l4 8q196 -30 196 -168v-1048q0 -8 -8 -8h-184q-8 0 -8 8zM1 1312v176q1 8 8 8h184q8 -1 8 -8v-272h-4q-72 88 -192 88z" />
<glyph unicode="&#xcd;" horiz-adv-x="398" d="M0 8v1208l4 8q196 -30 196 -168v-1048q0 -8 -8 -8h-184q-8 0 -8 8zM0 1312v176q1 8 8 8h184q8 -1 8 -8v-272h-4q-72 88 -192 88zM64 1548l291 297q35 35 55.5 47t40.5 12q33 0 53.5 -20t20.5 -51q0 -22 -15.5 -42t-46.5 -40l-330 -203h-69z" />
<glyph unicode="&#xce;" horiz-adv-x="780" d="M2 1452l232 355h118l232 -355h-58l-233 216l-233 -216h-58zM197 8v1208l4 8q196 -30 196 -168v-1048q0 -8 -8 -8h-184q-8 0 -8 8zM197 1312v176q1 8 8 8h184q8 -1 8 -8v-272h-4q-72 88 -192 88z" />
<glyph unicode="&#xcf;" horiz-adv-x="404" d="M-200 1656q0 47 33.5 80.5t80.5 33.5t80.5 -33.5t33.5 -80.5t-33.5 -80.5t-80.5 -33.5t-80.5 33.5t-33.5 80.5zM-1 8v1208l4 8q196 -30 196 -168v-1048q0 -8 -8 -8h-184q-8 0 -8 8zM-1 1312v176q1 8 8 8h184q8 -1 8 -8v-272h-4q-72 88 -192 88zM179 1656q0 47 33.5 80.5 t80.5 33.5t80.5 -33.5t33.5 -80.5t-33.5 -80.5t-80.5 -33.5t-80.5 33.5t-33.5 80.5z" />
<glyph unicode="&#xd0;" horiz-adv-x="1645" d="M0 619v120h996v-120h-996zM295 8v1476q1 8 8 8h576q394 0 532 -376q40 -142 40 -340v-52q0 -553 -344 -680q-101 -44 -244 -44h-96q-8 0 -8 8q0 138 100 184q180 45 240 100q156 131 156 436v32q0 556 -452 556h-312v-1136h8q82 0 248 4v-4q-60 -54 -60 -176l-8 -4h-376 q-8 0 -8 8z" />
<glyph unicode="&#xd1;" horiz-adv-x="1396" d="M0 8v1480q1 8 8 8h316q10 -5 176 -324q32 -60 32 -72h-4q-73 36 -132 36h-20q-22 0 -76 -12l-96 188h-4v-1304q0 -8 -8 -8h-184q-8 0 -8 8zM344 1048q30 8 56 8h4q128 0 204 -92q360 -688 388 -748h4v1272q1 8 8 8h184q8 -1 8 -8v-1480q0 -8 -8 -8h-300q-32 48 -540 1028 q-7 0 -8 20zM391 1563q19 106 68 158.5t129 52.5q46 -1 113 -24q64 -23 112 -23h4q36 0 58 20t36 66h54q-20 -103 -68.5 -154t-126.5 -51h-4q-50 0 -113 23q-66 24 -114 24q-39 0 -60.5 -20.5t-33.5 -71.5h-54z" />
<glyph unicode="&#xd2;" horiz-adv-x="1545" d="M0 592v304q0 312 272 504q175 96 400 96q8 -15 8 -32v-12q0 -131 -132 -156q-176 -47 -264 -160q-88 -143 -88 -308v-164q0 -241 160 -408q85 -76 212 -76h184q205 0 332 216q64 127 64 272v216q0 231 -208 360q-107 52 -212 52h-32v12q56 35 56 184q4 0 4 4 q184 0 388 -136q204 -155 204 -524v-124q0 -508 -356 -672q-100 -40 -272 -40h-124q-306 0 -492 240q-104 153 -104 352zM227 1821q0 31 20.5 51t53.5 20q20 0 40.5 -12t55.5 -47l291 -296h-69l-330 202q-31 20 -46.5 40t-15.5 42z" />
<glyph unicode="&#xd3;" horiz-adv-x="1545" d="M0 592v304q0 312 272 504q175 96 400 96q8 -15 8 -32v-12q0 -131 -132 -156q-176 -47 -264 -160q-88 -143 -88 -308v-164q0 -241 160 -408q85 -76 212 -76h184q205 0 332 216q64 127 64 272v216q0 231 -208 360q-107 52 -212 52h-32v12q56 35 56 184q4 0 4 4 q184 0 388 -136q204 -155 204 -524v-124q0 -508 -356 -672q-100 -40 -272 -40h-124q-306 0 -492 240q-104 153 -104 352zM606 1548l291 297q35 35 55.5 47t40.5 12q33 0 53.5 -20t20.5 -51q0 -22 -15.5 -42t-46.5 -40l-330 -203h-69z" />
<glyph unicode="&#xd4;" horiz-adv-x="1550" d="M0 592v304q0 312 272 504q175 96 400 96q8 -15 8 -32v-12q0 -131 -132 -156q-176 -47 -264 -160q-88 -143 -88 -308v-164q0 -241 160 -408q85 -76 212 -76h184q205 0 332 216q64 127 64 272v216q0 231 -208 360q-107 52 -212 52h-32v12q56 35 56 184q4 0 4 4 q184 0 388 -136q204 -155 204 -524v-124q0 -508 -356 -672q-100 -40 -272 -40h-124q-306 0 -492 240q-104 153 -104 352zM408 1552l232 355h118l232 -355h-58l-233 216l-233 -216h-58z" />
<glyph unicode="&#xd5;" horiz-adv-x="1542" d="M0 592v304q0 312 272 504q175 96 400 96q8 -15 8 -32v-12q0 -131 -132 -156q-176 -47 -264 -160q-88 -143 -88 -308v-164q0 -241 160 -408q85 -76 212 -76h184q205 0 332 216q64 127 64 272v216q0 231 -208 360q-107 52 -212 52h-32v12q56 35 56 184q4 0 4 4 q184 0 388 -136q204 -155 204 -524v-124q0 -508 -356 -672q-100 -40 -272 -40h-124q-306 0 -492 240q-104 153 -104 352zM410 1551q19 106 68 158.5t129 52.5q46 -1 113 -24q64 -23 112 -23h4q36 0 58 20t36 66h54q-20 -103 -68.5 -154t-126.5 -51h-4q-50 0 -113 23 q-66 24 -114 24q-39 0 -60.5 -20.5t-33.5 -71.5h-54z" />
<glyph unicode="&#xd6;" horiz-adv-x="1550" d="M0 592v304q0 312 272 504q175 96 400 96q8 -15 8 -32v-12q0 -131 -132 -156q-176 -47 -264 -160q-88 -143 -88 -308v-164q0 -241 160 -408q85 -76 212 -76h184q205 0 332 216q64 127 64 272v216q0 231 -208 360q-107 52 -212 52h-32v12q56 35 56 184q4 0 4 4 q184 0 388 -136q204 -155 204 -524v-124q0 -508 -356 -672q-100 -40 -272 -40h-124q-306 0 -492 240q-104 153 -104 352zM373 1656q0 47 33.5 80.5t80.5 33.5t80.5 -33.5t33.5 -80.5t-33.5 -80.5t-80.5 -33.5t-80.5 33.5t-33.5 80.5zM752 1656q0 47 33.5 80.5t80.5 33.5 t80.5 -33.5t33.5 -80.5t-33.5 -80.5t-80.5 -33.5t-80.5 33.5t-33.5 80.5z" />
<glyph unicode="&#xd7;" d="M161 470l247 247l-247 248l99 98l247 -247l248 247l98 -99l-247 -247l247 -247l-99 -99l-247 247l-247 -247z" />
<glyph unicode="&#xd8;" horiz-adv-x="1550" d="M0 592v304q0 312 272 504q175 96 400 96q8 -15 8 -32v-12q0 -131 -132 -156q-176 -47 -264 -160q-88 -143 -88 -308v-164q0 -241 160 -408q85 -76 212 -76h184q205 0 332 216q64 127 64 272v216q0 231 -208 360q-107 52 -212 52h-32v12q56 35 56 184q4 0 4 4 q184 0 388 -136q204 -155 204 -524v-124q0 -508 -356 -672q-100 -40 -272 -40h-124q-306 0 -492 240q-104 153 -104 352zM200 -6l940 1461h84l-938 -1461h-86z" />
<glyph unicode="&#xd9;" horiz-adv-x="1415" d="M0 468v192q1 8 8 8q149 -53 180 -120q11 -24 20 -124q51 -128 156 -176q97 -44 240 -44q315 0 392 208q16 47 20 128q41 77 184 128h8l4 -8v-164q0 -311 -320 -452q-133 -44 -292 -44q-443 0 -576 336q-24 80 -24 132zM0 756v732q1 8 8 8h180q8 -1 8 -8v-844h-8 q0 48 -164 104q-24 0 -24 8zM227 1821q0 31 20.5 51t53.5 20q20 0 40.5 -12t55.5 -47l291 -296h-69l-330 202q-31 20 -46.5 40t-15.5 42zM1012 640v848q1 8 8 8h184q8 -1 8 -8v-732q0 -6 -72 -20q-101 -45 -120 -96h-8z" />
<glyph unicode="&#xda;" horiz-adv-x="1422" d="M0 468v192q1 8 8 8q149 -53 180 -120q11 -24 20 -124q51 -128 156 -176q97 -44 240 -44q315 0 392 208q16 47 20 128q41 77 184 128h8l4 -8v-164q0 -311 -320 -452q-133 -44 -292 -44q-443 0 -576 336q-24 80 -24 132zM0 756v732q1 8 8 8h180q8 -1 8 -8v-844h-8 q0 48 -164 104q-24 0 -24 8zM516 1548l291 297q35 35 55.5 47t40.5 12q33 0 53.5 -20t20.5 -51q0 -22 -15.5 -42t-46.5 -40l-330 -203h-69zM1012 640v848q1 8 8 8h184q8 -1 8 -8v-732q0 -6 -72 -20q-101 -45 -120 -96h-8z" />
<glyph unicode="&#xdb;" horiz-adv-x="1419" d="M0 468v192q1 8 8 8q149 -53 180 -120q11 -24 20 -124q51 -128 156 -176q97 -44 240 -44q315 0 392 208q16 47 20 128q41 77 184 128h8l4 -8v-164q0 -311 -320 -452q-133 -44 -292 -44q-443 0 -576 336q-24 80 -24 132zM0 756v732q1 8 8 8h180q8 -1 8 -8v-844h-8 q0 48 -164 104q-24 0 -24 8zM358 1552l232 355h118l232 -355h-58l-233 216l-233 -216h-58zM1012 640v848q1 8 8 8h184q8 -1 8 -8v-732q0 -6 -72 -20q-101 -45 -120 -96h-8z" />
<glyph unicode="&#xdc;" horiz-adv-x="1413" d="M0 468v192q1 8 8 8q149 -53 180 -120q11 -24 20 -124q51 -128 156 -176q97 -44 240 -44q315 0 392 208q16 47 20 128q41 77 184 128h8l4 -8v-164q0 -311 -320 -452q-133 -44 -292 -44q-443 0 -576 336q-24 80 -24 132zM0 756v732q1 8 8 8h180q8 -1 8 -8v-844h-8 q0 48 -164 104q-24 0 -24 8zM313 1656q0 47 33.5 80.5t80.5 33.5t80.5 -33.5t33.5 -80.5t-33.5 -80.5t-80.5 -33.5t-80.5 33.5t-33.5 80.5zM692 1656q0 47 33.5 80.5t80.5 33.5t80.5 -33.5t33.5 -80.5t-33.5 -80.5t-80.5 -33.5t-80.5 33.5t-33.5 80.5zM1012 640v848q1 8 8 8 h184q8 -1 8 -8v-732q0 -6 -72 -20q-101 -45 -120 -96h-8z" />
<glyph unicode="&#xdd;" horiz-adv-x="1598" d="M0 1492l8 4h244q12 -7 424 -612q124 -175 124 -332v-544q0 -8 -8 -8h-184q-8 0 -8 8v552q0 144 -316 540zM609 1548l291 297q35 35 55.5 47t40.5 12q33 0 53.5 -20t20.5 -51q0 -22 -15.5 -42t-46.5 -40l-330 -203h-69zM752 892q380 560 420 604h236q8 -1 8 -8l-576 -780 h-4q0 71 -84 184z" />
<glyph unicode="&#xde;" horiz-adv-x="1120" />
<glyph unicode="&#xdf;" horiz-adv-x="1251" />
<glyph unicode="&#xe0;" horiz-adv-x="922" d="M0 332v36q0 267 348 332q84 12 256 20q44 23 44 80q-7 72 -64 72h-484q-8 0 -8 8v164q1 8 8 8h504q179 0 232 -172q12 -71 12 -100q0 -175 -180 -228q-45 -16 -308 -32q-81 -15 -140 -80q-24 -45 -24 -88q0 -141 96 -172h356v292q1 7 100 36q92 49 92 92h8v-592 q0 -8 -8 -8h-480q-253 0 -328 172q-32 79 -32 160zM212 1363q0 31 20.5 51t53.5 20q20 0 40.5 -12t55.5 -47l291 -296h-69l-330 202q-31 20 -46.5 40t-15.5 42z" />
<glyph unicode="&#xe1;" horiz-adv-x="922" d="M0 332v36q0 267 348 332q84 12 256 20q44 23 44 80q-7 72 -64 72h-484q-8 0 -8 8v164q1 8 8 8h504q179 0 232 -172q12 -71 12 -100q0 -175 -180 -228q-45 -16 -308 -32q-81 -15 -140 -80q-24 -45 -24 -88q0 -141 96 -172h356v292q1 7 100 36q92 49 92 92h8v-592 q0 -8 -8 -8h-480q-253 0 -328 172q-32 79 -32 160zM316 1078l291 297q35 35 55.5 47t40.5 12q33 0 53.5 -20t20.5 -51q0 -22 -15.5 -42t-46.5 -40l-330 -203h-69z" />
<glyph unicode="&#xe2;" horiz-adv-x="922" d="M0 332v36q0 267 348 332q84 12 256 20q44 23 44 80q-7 72 -64 72h-484q-8 0 -8 8v164q1 8 8 8h504q179 0 232 -172q12 -71 12 -100q0 -175 -180 -228q-45 -16 -308 -32q-81 -15 -140 -80q-24 -45 -24 -88q0 -141 96 -172h356v292q1 7 100 36q92 49 92 92h8v-592 q0 -8 -8 -8h-480q-253 0 -328 172q-32 79 -32 160zM221 1079l232 355h118l232 -355h-58l-233 216l-233 -216h-58z" />
<glyph unicode="&#xe3;" horiz-adv-x="922" d="M0 332v36q0 267 348 332q84 12 256 20q44 23 44 80q-7 72 -64 72h-484q-8 0 -8 8v164q1 8 8 8h504q179 0 232 -172q12 -71 12 -100q0 -175 -180 -228q-45 -16 -308 -32q-81 -15 -140 -80q-24 -45 -24 -88q0 -141 96 -172h356v292q1 7 100 36q92 49 92 92h8v-592 q0 -8 -8 -8h-480q-253 0 -328 172q-32 79 -32 160zM219 1349h51q17 -73 75 -107t167 -34t166 33.5t74 107.5h51q-20 -133 -94 -201.5t-197 -68.5q-122 0 -197 69t-96 201z" />
<glyph unicode="&#xe4;" horiz-adv-x="922" d="M0 332v36q0 267 348 332q84 12 256 20q44 23 44 80q-7 72 -64 72h-484q-8 0 -8 8v164q1 8 8 8h504q179 0 232 -172q12 -71 12 -100q0 -175 -180 -228q-45 -16 -308 -32q-81 -15 -140 -80q-24 -45 -24 -88q0 -141 96 -172h356v292q1 7 100 36q92 49 92 92h8v-592 q0 -8 -8 -8h-480q-253 0 -328 172q-32 79 -32 160zM143 1259q0 47 33.5 80.5t80.5 33.5t80.5 -33.5t33.5 -80.5t-33.5 -80.5t-80.5 -33.5t-80.5 33.5t-33.5 80.5zM522 1259q0 47 33.5 80.5t80.5 33.5t80.5 -33.5t33.5 -80.5t-33.5 -80.5t-80.5 -33.5t-80.5 33.5t-33.5 80.5z " />
<glyph unicode="&#xe5;" horiz-adv-x="922" d="M0 332v36q0 267 348 332q84 12 256 20q44 23 44 80q-7 72 -64 72h-484q-8 0 -8 8v164q1 8 8 8h504q179 0 232 -172q12 -71 12 -100q0 -175 -180 -228q-45 -16 -308 -32q-81 -15 -140 -80q-24 -45 -24 -88q0 -141 96 -172h356v292q1 7 100 36q92 49 92 92h8v-592 q0 -8 -8 -8h-480q-253 0 -328 172q-32 79 -32 160zM335 1257q0 75 51 126t125 51q76 0 127.5 -51.5t51.5 -125.5q0 -75 -51.5 -126.5t-127.5 -51.5q-74 0 -125 51.5t-51 126.5zM411 1257q0 -42 29 -71t71 -29t71 29t29 71q0 40 -29.5 69.5t-70.5 29.5t-70.5 -29.5 t-29.5 -69.5z" />
<glyph unicode="&#xe6;" horiz-adv-x="1454" d="M0 332v36q0 267 348 332q84 12 256 20q44 23 44 80q-7 72 -64 72h-484q-8 0 -8 8v164q1 8 8 8h504q179 0 232 -172q12 -71 12 -100q0 -175 -180 -228q-45 -16 -308 -32q-81 -15 -140 -80q-24 -45 -24 -88q0 -141 96 -172h356v292q1 7 100 36q92 49 92 92h8v-592 q0 -8 -8 -8h-480q-253 0 -328 172q-32 79 -32 160zM755 444q0 124 108 160q38 8 60 8h560v8q0 172 -164 240q-56 12 -92 12h-32q-189 0 -244 -148q-3 -56 -12 -56h-4q-139 0 -172 -84h-8v4q0 219 156 368q114 96 288 96h4q329 0 440 -264q40 -110 40 -220v-128q0 -8 -8 -8 h-720v-4q0 -183 136 -240q17 -8 64 -8h396q8 -1 8 -8v-164q0 -8 -8 -8h-404q-260 0 -356 224q-36 88 -36 220z" />
<glyph unicode="&#xe7;" horiz-adv-x="905" d="M0 532q4 48 8 52q192 -37 192 -128q0 -229 164 -272q27 -4 44 -4h292q8 -1 8 -8v-164q0 -8 -8 -8h-236q-319 0 -408 208q-56 112 -56 324zM8 652q0 186 152 324q105 76 264 76h276q8 -1 8 -8v-164q0 -8 -8 -8h-264q-188 0 -232 -236q-4 -44 -4 -76h-8q0 42 -160 80 q-24 0 -24 12zM360 -290q85 -52 152 -52q66 0 94.5 21.5t28.5 66.5t-49 64q-40 16 -102 16q-16 0 -34 -2l48 176h63l-37 -104q32 4 62 5q86 0 134 -40.5t48 -113.5q0 -76 -58.5 -120.5t-160.5 -44.5q-109 0 -189 32v96z" />
<glyph unicode="&#xe8;" horiz-adv-x="1127" d="M0 444q0 124 108 160q38 8 60 8h560v8q0 172 -164 240q-56 12 -92 12h-32q-189 0 -244 -148q-3 -56 -12 -56h-4q-139 0 -172 -84h-8v4q0 219 156 368q114 96 288 96h4q329 0 440 -264q40 -110 40 -220v-128q0 -8 -8 -8h-720v-4q0 -183 136 -240q17 -8 64 -8h396 q8 -1 8 -8v-164q0 -8 -8 -8h-404q-260 0 -356 224q-36 88 -36 220zM212 1363q0 31 20.5 51t53.5 20q20 0 40.5 -12t55.5 -47l291 -296h-69l-330 202q-31 20 -46.5 40t-15.5 42z" />
<glyph unicode="&#xe9;" horiz-adv-x="1131" d="M0 444q0 124 108 160q38 8 60 8h560v8q0 172 -164 240q-56 12 -92 12h-32q-189 0 -244 -148q-3 -56 -12 -56h-4q-139 0 -172 -84h-8v4q0 219 156 368q114 96 288 96h4q329 0 440 -264q40 -110 40 -220v-128q0 -8 -8 -8h-720v-4q0 -183 136 -240q17 -8 64 -8h396 q8 -1 8 -8v-164q0 -8 -8 -8h-404q-260 0 -356 224q-36 88 -36 220zM316 1078l291 297q35 35 55.5 47t40.5 12q33 0 53.5 -20t20.5 -51q0 -22 -15.5 -42t-46.5 -40l-330 -203h-69z" />
<glyph unicode="&#xea;" horiz-adv-x="1117" d="M0 444q0 124 108 160q38 8 60 8h560v8q0 172 -164 240q-56 12 -92 12h-32q-189 0 -244 -148q-3 -56 -12 -56h-4q-139 0 -172 -84h-8v4q0 219 156 368q114 96 288 96h4q329 0 440 -264q40 -110 40 -220v-128q0 -8 -8 -8h-720v-4q0 -183 136 -240q17 -8 64 -8h396 q8 -1 8 -8v-164q0 -8 -8 -8h-404q-260 0 -356 224q-36 88 -36 220zM150 1079l232 355h118l232 -355h-58l-233 216l-233 -216h-58z" />
<glyph unicode="&#xeb;" horiz-adv-x="1131" d="M0 444q0 124 108 160q38 8 60 8h560v8q0 172 -164 240q-56 12 -92 12h-32q-189 0 -244 -148q-3 -56 -12 -56h-4q-139 0 -172 -84h-8v4q0 219 156 368q114 96 288 96h4q329 0 440 -264q40 -110 40 -220v-128q0 -8 -8 -8h-720v-4q0 -183 136 -240q17 -8 64 -8h396 q8 -1 8 -8v-164q0 -8 -8 -8h-404q-260 0 -356 224q-36 88 -36 220zM133 1229q0 47 33.5 80.5t80.5 33.5t80.5 -33.5t33.5 -80.5t-33.5 -80.5t-80.5 -33.5t-80.5 33.5t-33.5 80.5zM512 1229q0 47 33.5 80.5t80.5 33.5t80.5 -33.5t33.5 -80.5t-33.5 -80.5t-80.5 -33.5 t-80.5 33.5t-33.5 80.5z" />
<glyph unicode="&#xec;" horiz-adv-x="390" d="M-316 1363q0 31 20.5 51t53.5 20q20 0 40.5 -12t55.5 -47l291 -296h-69l-330 202q-31 20 -46.5 40t-15.5 42zM-5 7v729q0 90 156 118l40 3l4 -7v-843q0 -7 -8 -7h-184q-8 0 -8 7zM-5 850v189q1 7 8 7h184q8 -1 8 -7v-120q0 -7 -8 -7h-4q-124 0 -180 -62h-8z" />
<glyph unicode="&#xed;" horiz-adv-x="399" d="M0 7v729q0 90 156 118l40 3l4 -7v-843q0 -7 -8 -7h-184q-8 0 -8 7zM0 850v189q1 7 8 7h184q8 -1 8 -7v-120q0 -7 -8 -7h-4q-124 0 -180 -62h-8zM54 1078l291 297q35 35 55.5 47t40.5 12q33 0 53.5 -20t20.5 -51q0 -22 -15.5 -42t-46.5 -40l-330 -203h-69z" />
<glyph unicode="&#xee;" horiz-adv-x="575" d="M2 1074l232 355h118l232 -355h-58l-233 216l-233 -216h-58zM190 7v729q0 90 156 118l40 3l4 -7v-843q0 -7 -8 -7h-184q-8 0 -8 7zM190 850v189q1 7 8 7h184q8 -1 8 -7v-120q0 -7 -8 -7h-4q-124 0 -180 -62h-8z" />
<glyph unicode="&#xef;" horiz-adv-x="599" d="M-2 1229q0 47 33.5 80.5t80.5 33.5t80.5 -33.5t33.5 -80.5t-33.5 -80.5t-80.5 -33.5t-80.5 33.5t-33.5 80.5zM200 7v729q0 90 156 118l40 3l4 -7v-843q0 -7 -8 -7h-184q-8 0 -8 7zM200 850v189q1 7 8 7h184q8 -1 8 -7v-120q0 -7 -8 -7h-4q-124 0 -180 -62h-8zM377 1229 q0 47 33.5 80.5t80.5 33.5t80.5 -33.5t33.5 -80.5t-33.5 -80.5t-80.5 -33.5t-80.5 33.5t-33.5 80.5z" />
<glyph unicode="&#xf0;" horiz-adv-x="1139" />
<glyph unicode="&#xf1;" horiz-adv-x="1028" d="M0 8v1036q1 8 8 8h396q223 0 368 -176q60 -100 60 -240v-628q0 -8 -8 -8h-184q-8 0 -8 8v608q0 186 -160 248q-39 12 -104 12h-172v-868q0 -8 -8 -8h-180q-8 0 -8 8zM234 1132q19 106 68 158.5t129 52.5q46 -1 113 -24q64 -23 112 -23h4q36 0 58 20t36 66h54 q-20 -103 -68.5 -154t-126.5 -51h-4q-50 0 -113 23q-66 24 -114 24q-39 0 -60.5 -20.5t-33.5 -71.5h-54z" />
<glyph unicode="&#xf2;" horiz-adv-x="1147" d="M0 484v88q0 312 224 424q117 52 248 52q8 -18 8 -40q0 -104 -68 -136q-108 -24 -140 -48q-72 -59 -72 -212v-168q0 -201 144 -260l40 -4h160q132 0 192 172q12 64 12 124v120q0 193 -160 260q-43 12 -96 16v4q40 36 40 120q0 7 -4 48q4 0 4 4q153 0 304 -124 q108 -121 108 -280v-188q0 -248 -180 -392q-89 -64 -236 -64h-124q-233 0 -352 200q-52 88 -52 284zM212 1363q0 31 20.5 51t53.5 20q20 0 40.5 -12t55.5 -47l291 -296h-69l-330 202q-31 20 -46.5 40t-15.5 42z" />
<glyph unicode="&#xf3;" horiz-adv-x="1142" d="M0 484v88q0 312 224 424q117 52 248 52q8 -18 8 -40q0 -104 -68 -136q-108 -24 -140 -48q-72 -59 -72 -212v-168q0 -201 144 -260l40 -4h160q132 0 192 172q12 64 12 124v120q0 193 -160 260q-43 12 -96 16v4q40 36 40 120q0 7 -4 48q4 0 4 4q153 0 304 -124 q108 -121 108 -280v-188q0 -248 -180 -392q-89 -64 -236 -64h-124q-233 0 -352 200q-52 88 -52 284zM316 1078l291 297q35 35 55.5 47t40.5 12q33 0 53.5 -20t20.5 -51q0 -22 -15.5 -42t-46.5 -40l-330 -203h-69z" />
<glyph unicode="&#xf4;" horiz-adv-x="1147" d="M0 484v88q0 312 224 424q117 52 248 52q8 -18 8 -40q0 -104 -68 -136q-108 -24 -140 -48q-72 -59 -72 -212v-168q0 -201 144 -260l40 -4h160q132 0 192 172q12 64 12 124v120q0 193 -160 260q-43 12 -96 16v4q40 36 40 120q0 7 -4 48q4 0 4 4q153 0 304 -124 q108 -121 108 -280v-188q0 -248 -180 -392q-89 -64 -236 -64h-124q-233 0 -352 200q-52 88 -52 284zM221 1079l232 355h118l232 -355h-58l-233 216l-233 -216h-58z" />
<glyph unicode="&#xf5;" horiz-adv-x="1137" d="M0 484v88q0 312 224 424q117 52 248 52q8 -18 8 -40q0 -104 -68 -136q-108 -24 -140 -48q-72 -59 -72 -212v-168q0 -201 144 -260l40 -4h160q132 0 192 172q12 64 12 124v120q0 193 -160 260q-43 12 -96 16v4q40 36 40 120q0 7 -4 48q4 0 4 4q153 0 304 -124 q108 -121 108 -280v-188q0 -248 -180 -392q-89 -64 -236 -64h-124q-233 0 -352 200q-52 88 -52 284zM234 1132q19 106 68 158.5t129 52.5q46 -1 113 -24q64 -23 112 -23h4q36 0 58 20t36 66h54q-20 -103 -68.5 -154t-126.5 -51h-4q-50 0 -113 23q-66 24 -114 24 q-39 0 -60.5 -20.5t-33.5 -71.5h-54z" />
<glyph unicode="&#xf6;" horiz-adv-x="1142" d="M0 484v88q0 312 224 424q117 52 248 52q8 -18 8 -40q0 -104 -68 -136q-108 -24 -140 -48q-72 -59 -72 -212v-168q0 -201 144 -260l40 -4h160q132 0 192 172q12 64 12 124v120q0 193 -160 260q-43 12 -96 16v4q40 36 40 120q0 7 -4 48q4 0 4 4q153 0 304 -124 q108 -121 108 -280v-188q0 -248 -180 -392q-89 -64 -236 -64h-124q-233 0 -352 200q-52 88 -52 284zM183 1229q0 47 33.5 80.5t80.5 33.5t80.5 -33.5t33.5 -80.5t-33.5 -80.5t-80.5 -33.5t-80.5 33.5t-33.5 80.5zM562 1229q0 47 33.5 80.5t80.5 33.5t80.5 -33.5t33.5 -80.5 t-33.5 -80.5t-80.5 -33.5t-80.5 33.5t-33.5 80.5z" />
<glyph unicode="&#xf7;" d="M87 647v140h839l1 -1v-139h-840zM375 365q0 54 37.5 91.5t90.5 37.5q54 0 91.5 -37.5t37.5 -91.5q0 -53 -37.5 -90.5t-91.5 -37.5q-53 0 -90.5 37.5t-37.5 90.5zM375 1059q0 54 37.5 91.5t90.5 37.5q54 0 91.5 -37.5t37.5 -91.5q0 -53 -37.5 -90.5t-91.5 -37.5 q-53 0 -90.5 37.5t-37.5 90.5z" />
<glyph unicode="&#xf8;" horiz-adv-x="1142" d="M-2 -9l867 1044h78l-866 -1044h-79zM0 484v88q0 312 224 424q117 52 248 52q8 -18 8 -40q0 -104 -68 -136q-108 -24 -140 -48q-72 -59 -72 -212v-168q0 -201 144 -260l40 -4h160q132 0 192 172q12 64 12 124v120q0 193 -160 260q-43 12 -96 16v4q40 36 40 120q0 7 -4 48 q4 0 4 4q153 0 304 -124q108 -121 108 -280v-188q0 -248 -180 -392q-89 -64 -236 -64h-124q-233 0 -352 200q-52 88 -52 284z" />
<glyph unicode="&#xf9;" horiz-adv-x="1046" d="M-2 1363q0 31 20.5 51t53.5 20q20 0 40.5 -12t55.5 -47l291 -296h-69l-330 202q-31 20 -46.5 40t-15.5 42zM0 344v120q1 8 8 8q136 0 188 -88q0 -128 72 -172q61 -32 140 -32h36q156 0 200 104q15 104 24 116q0 39 120 64l60 8l4 -8v-136q0 -152 -164 -268 q-121 -60 -264 -60q-304 0 -404 232q-20 62 -20 112zM0 536v508q1 8 8 8h184q8 -1 8 -8v-588h-8q0 59 -180 72h-4q-8 0 -8 8zM656 464v580q1 8 8 8h180q8 -1 8 -8v-508q0 -8 -12 -8q-141 0 -176 -64h-8z" />
<glyph unicode="&#xfa;" horiz-adv-x="1046" d="M0 344v120q1 8 8 8q136 0 188 -88q0 -128 72 -172q61 -32 140 -32h36q156 0 200 104q15 104 24 116q0 39 120 64l60 8l4 -8v-136q0 -152 -164 -268q-121 -60 -264 -60q-304 0 -404 232q-20 62 -20 112zM0 536v508q1 8 8 8h184q8 -1 8 -8v-588h-8q0 59 -180 72h-4 q-8 0 -8 8zM382 1078l291 297q35 35 55.5 47t40.5 12q33 0 53.5 -20t20.5 -51q0 -22 -15.5 -42t-46.5 -40l-330 -203h-69zM656 464v580q1 8 8 8h180q8 -1 8 -8v-508q0 -8 -12 -8q-141 0 -176 -64h-8z" />
<glyph unicode="&#xfb;" horiz-adv-x="1050" d="M0 344v120q1 8 8 8q136 0 188 -88q0 -128 72 -172q61 -32 140 -32h36q156 0 200 104q15 104 24 116q0 39 120 64l60 8l4 -8v-136q0 -152 -164 -268q-121 -60 -264 -60q-304 0 -404 232q-20 62 -20 112zM0 536v508q1 8 8 8h184q8 -1 8 -8v-588h-8q0 59 -180 72h-4 q-8 0 -8 8zM131 1079l232 355h118l232 -355h-58l-233 216l-233 -216h-58zM656 464v580q1 8 8 8h180q8 -1 8 -8v-508q0 -8 -12 -8q-141 0 -176 -64h-8z" />
<glyph unicode="&#xfc;" horiz-adv-x="1046" d="M0 344v120q1 8 8 8q136 0 188 -88q0 -128 72 -172q61 -32 140 -32h36q156 0 200 104q15 104 24 116q0 39 120 64l60 8l4 -8v-136q0 -152 -164 -268q-121 -60 -264 -60q-304 0 -404 232q-20 62 -20 112zM0 536v508q1 8 8 8h184q8 -1 8 -8v-588h-8q0 59 -180 72h-4 q-8 0 -8 8zM123 1229q0 47 33.5 80.5t80.5 33.5t80.5 -33.5t33.5 -80.5t-33.5 -80.5t-80.5 -33.5t-80.5 33.5t-33.5 80.5zM502 1229q0 47 33.5 80.5t80.5 33.5t80.5 -33.5t33.5 -80.5t-33.5 -80.5t-80.5 -33.5t-80.5 33.5t-33.5 80.5zM656 464v580q1 8 8 8h180q8 -1 8 -8 v-508q0 -8 -12 -8q-141 0 -176 -64h-8z" />
<glyph unicode="&#xfd;" horiz-adv-x="1255" d="M0 1086h208q7 0 108 -216q316 -685 340 -748q32 -84 32 -128q0 -201 -132 -332q-84 -72 -208 -72h-240q-8 0 -8 8v160q1 8 8 8h160q142 0 192 88q20 34 20 80v36q0 91 -172 444q-308 656 -308 672zM487 1078l291 297q35 35 55.5 47t40.5 12q33 0 53.5 -20t20.5 -51 q0 -22 -15.5 -42t-46.5 -40l-330 -203h-69zM596 406q248 652 268 680h204v-4l-352 -916h-4q-21 32 -116 240z" />
<glyph unicode="&#xfe;" horiz-adv-x="1010" />
<glyph unicode="&#xff;" horiz-adv-x="1260" d="M0 1086h208q7 0 108 -216q316 -685 340 -748q32 -84 32 -128q0 -201 -132 -332q-84 -72 -208 -72h-240q-8 0 -8 8v160q1 8 8 8h160q142 0 192 88q20 34 20 80v36q0 91 -172 444q-308 656 -308 672zM233 1229q0 47 33.5 80.5t80.5 33.5t80.5 -33.5t33.5 -80.5t-33.5 -80.5 t-80.5 -33.5t-80.5 33.5t-33.5 80.5zM596 406q248 652 268 680h204v-4l-352 -916h-4q-21 32 -116 240zM612 1229q0 47 33.5 80.5t80.5 33.5t80.5 -33.5t33.5 -80.5t-33.5 -80.5t-80.5 -33.5t-80.5 33.5t-33.5 80.5z" />
<glyph unicode="&#x2c6;" horiz-adv-x="1024" d="M221 1079l232 355h118l232 -355h-58l-233 216l-233 -216h-58z" />
<glyph unicode="&#x2dc;" horiz-adv-x="575" d="M-4 1132q19 106 68 158.5t129 52.5q46 -1 113 -24q64 -23 112 -23h4q36 0 58 20t36 66h54q-20 -103 -68.5 -154t-126.5 -51h-4q-50 0 -113 23q-66 24 -114 24q-39 0 -60.5 -20.5t-33.5 -71.5h-54z" />
<glyph unicode="&#x2000;" horiz-adv-x="953" />
<glyph unicode="&#x2001;" horiz-adv-x="1907" />
<glyph unicode="&#x2002;" horiz-adv-x="953" />
<glyph unicode="&#x2003;" horiz-adv-x="1907" />
<glyph unicode="&#x2004;" horiz-adv-x="635" />
<glyph unicode="&#x2005;" horiz-adv-x="476" />
<glyph unicode="&#x2006;" horiz-adv-x="317" />
<glyph unicode="&#x2007;" horiz-adv-x="317" />
<glyph unicode="&#x2008;" horiz-adv-x="238" />
<glyph unicode="&#x2009;" horiz-adv-x="381" />
<glyph unicode="&#x200a;" horiz-adv-x="105" />
<glyph unicode="&#x2010;" horiz-adv-x="432" d="M-3 437v83q0 29 41 29h356q41 0 41 -29v-83q0 -28 -40 -28h-358q-40 0 -40 28z" />
<glyph unicode="&#x2011;" horiz-adv-x="432" d="M-3 437v83q0 29 41 29h356q41 0 41 -29v-83q0 -28 -40 -28h-358q-40 0 -40 28z" />
<glyph unicode="&#x2012;" horiz-adv-x="432" d="M-3 437v83q0 29 41 29h356q41 0 41 -29v-83q0 -28 -40 -28h-358q-40 0 -40 28z" />
<glyph unicode="&#x2013;" horiz-adv-x="1108" d="M56 419v120h996v-120h-996z" />
<glyph unicode="&#x2014;" horiz-adv-x="2048" d="M0 419v120h2048v-120h-2048z" />
<glyph unicode="&#x2018;" horiz-adv-x="514" d="M1 1233q0 109 71 226.5t139 117.5v-43q-73 -43 -87 -190q0 -119 129 -161v-42l-119 -125q-44 0 -88.5 65.5t-44.5 151.5zM78 1053q0 16 29.5 27.5t72.5 12.5q42 0 72.5 -11t30.5 -27t-30 -27.5t-72 -12.5q-43 0 -73 11t-30 27zM105 1107q-1 37 29.5 63.5t73.5 27.5 q44 0 74.5 -26t31.5 -63q0 -37 -30.5 -63.5t-73.5 -27.5q-43 0 -74 26t-31 63z" />
<glyph unicode="&#x2019;" horiz-adv-x="514" d="M-5 1493q0 38 30 64.5t74 26.5q43 0 74 -26t31 -63t-30 -63.5t-74 -27.5q-43 0 -74 26t-31 63zM26 1547q0 16 30 28t72 12q43 0 73 -11t30 -27t-30 -27.5t-72 -11.5q-43 -1 -73 10t-30 27zM56 1419v42l119 125q44 0 88.5 -65.5t44.5 -151.5q0 -109 -71 -226.5 t-139 -117.5v43q73 43 87 190q0 119 -129 161z" />
<glyph unicode="&#x201a;" horiz-adv-x="513" d="M-7 192q0 37 30.5 63.5t73.5 26.5q44 0 74.5 -26.5t30.5 -63.5t-30.5 -63.5t-74.5 -26.5q-43 0 -73.5 26.5t-30.5 63.5zM24 246q0 16 30 27.5t73 11.5q42 0 72 -11.5t30 -27.5t-30 -27.5t-72 -11.5q-43 0 -73 11.5t-30 27.5zM62 108v42l119 125q44 0 88.5 -65.5 t44.5 -151.5q0 -109 -71 -226.5t-139 -117.5v43q73 43 87 190q0 119 -129 161z" />
<glyph unicode="&#x201c;" horiz-adv-x="860" d="M5 1233q0 109 71 226.5t139 117.5v-43q-73 -43 -87 -190q0 -119 129 -161v-42l-119 -125q-44 0 -88.5 65.5t-44.5 151.5zM82 1053q0 16 29.5 27.5t72.5 12.5q42 0 72.5 -11t30.5 -27t-30 -27.5t-72 -12.5q-43 0 -73 11t-30 27zM109 1107q-1 37 29.5 63.5t73.5 27.5 q44 0 74.5 -26t31.5 -63q0 -37 -30.5 -63.5t-73.5 -27.5q-43 0 -74 26t-31 63zM362 1233q0 109 71 226.5t139 117.5v-43q-73 -43 -87 -190q0 -119 129 -161v-42l-119 -125q-44 0 -88.5 65.5t-44.5 151.5zM439 1053q0 16 29.5 27.5t72.5 12.5q42 0 72.5 -11t30.5 -27 t-30 -27.5t-72 -12.5q-43 0 -73 11t-30 27zM466 1107q-1 37 29.5 63.5t73.5 27.5q44 0 74.5 -26t31.5 -63q0 -37 -30.5 -63.5t-73.5 -27.5q-43 0 -74 26t-31 63z" />
<glyph unicode="&#x201d;" horiz-adv-x="851" d="M4 1483q0 38 30 64.5t74 26.5q43 0 74 -26t31 -63t-30 -63.5t-74 -27.5q-43 0 -74 26t-31 63zM35 1537q0 16 30 28t72 12q43 0 73 -11t30 -27t-30 -27.5t-72 -11.5q-43 -1 -73 10t-30 27zM65 1409v42l119 125q44 0 88.5 -65.5t44.5 -151.5q0 -109 -71 -226.5t-139 -117.5 v43q73 43 87 190q0 119 -129 161zM361 1483q0 38 30 64.5t74 26.5q43 0 74 -26t31 -63t-30 -63.5t-74 -27.5q-43 0 -74 26t-31 63zM392 1537q0 16 30 28t72 12q43 0 73 -11t30 -27t-30 -27.5t-72 -11.5q-43 -1 -73 10t-30 27zM422 1409v42l119 125q44 0 88.5 -65.5 t44.5 -151.5q0 -109 -71 -226.5t-139 -117.5v43q73 43 87 190q0 119 -129 161z" />
<glyph unicode="&#x201e;" horiz-adv-x="870" d="M5 185q0 37 30.5 63.5t73.5 27.5q43 0 74 -26t31 -63q1 -37 -29.5 -63.5t-73.5 -27.5q-44 0 -74.5 26t-31.5 63zM36 239q0 16 30 27.5t72 12.5q43 0 73 -11t30 -27t-29.5 -27.5t-72.5 -12.5q-42 0 -72.5 11t-30.5 27zM66 111v42l119 125q44 0 88.5 -65.5t44.5 -151.5 q0 -109 -71 -226.5t-139 -117.5v43q73 43 87 190q0 119 -129 161zM362 185q0 37 30.5 63.5t73.5 27.5q43 0 74 -26t31 -63q1 -37 -29.5 -63.5t-73.5 -27.5q-44 0 -74.5 26t-31.5 63zM393 239q0 16 30 27.5t72 12.5q43 0 73 -11t30 -27t-29.5 -27.5t-72.5 -12.5 q-42 0 -72.5 11t-30.5 27zM423 111v42l119 125q44 0 88.5 -65.5t44.5 -151.5q0 -109 -71 -226.5t-139 -117.5v43q73 43 87 190q0 119 -129 161z" />
<glyph unicode="&#x2022;" horiz-adv-x="1024" d="M216 718q0 123 87 209t210 86q122 0 208.5 -86.5t86.5 -208.5t-87.5 -209.5t-209.5 -87.5q-123 0 -209 87t-86 210z" />
<glyph unicode="&#x2026;" horiz-adv-x="1797" d="M-4 128q0 53 37.5 90.5t90.5 37.5t90.5 -37.5t37.5 -90.5t-37.5 -90.5t-90.5 -37.5t-90.5 37.5t-37.5 90.5zM675 128q0 53 37.5 90.5t90.5 37.5t90.5 -37.5t37.5 -90.5t-37.5 -90.5t-90.5 -37.5t-90.5 37.5t-37.5 90.5zM1356 128q0 53 37.5 90.5t90.5 37.5t90.5 -37.5 t37.5 -90.5t-37.5 -90.5t-90.5 -37.5t-90.5 37.5t-37.5 90.5z" />
<glyph unicode="&#x202f;" horiz-adv-x="381" />
<glyph unicode="&#x2039;" horiz-adv-x="551" d="M-2 479l342 303h14v-37l-205 -266l205 -266v-37h-14z" />
<glyph unicode="&#x203a;" horiz-adv-x="561" d="M6 176v37l205 266l-205 266v37h14l342 -303l-342 -303h-14z" />
<glyph unicode="&#x205f;" horiz-adv-x="476" />
<glyph unicode="&#x20ac;" d="M-44 653l17 60h87v29q0 16 1 31h-71l17 60h58q14 145 76 281q81 178 226 274t298 96q43 0 87 -8q40 -10 82 -29q8 -6 16 -6q20 0 34 45h41l84 -281l-40 -1q-49 134 -138 178q-43 22 -81 32v3q-50 16 -101 16q-17 0 -34 -2q-120 -12 -226 -113.5t-157 -273.5 q-32 -104 -39 -211h706l-17 -60h-692q0 -30 2 -60h674l-17 -60h-652q17 -158 83 -298q74 -157 193 -236q102 -68 216 -69q186 3 256 91q74 91 74 185h48v-143q0 -70 -111 -127q-105 -54 -267 -56q-181 0 -325.5 98t-223.5 274q-62 135 -76 281h-108z" />
<glyph unicode="&#x2122;" horiz-adv-x="1094" d="M1 1388v46q0 2 3 2h183q55 0 70 -18q11 -13 11 -32v-365q0 -2 -3 -2h-71q-3 0 -3 2v365h-187q-3 0 -3 2zM259 1434v2h195q3 0 3 -2v-46q0 -2 -3 -2h-157q-3 0 -10 27q-13 21 -28 21zM501 1024v178l1 2q17 0 42 -26q12 -18 12 -24v-130q0 -2 -2 -2h-51q-2 0 -2 2z M501 1229v203q0 3 2 3h91q5 -6 53 -142q36 -96 45 -123h1q67 185 97 265h92q2 -1 2 -3v-183h-1q-28 34 -53 34l-1 3v106h-1q0 -3 -97 -272h-74q-4 3 -25 62q-75 208 -75 210h-1v-199h-1q-20 26 -45 33q-9 0 -9 3zM829 1024v234q0 2 3 2q17 0 43 -31q9 -14 9 -21v-184 q0 -2 -2 -2h-51q-2 0 -2 2z" />
<glyph unicode="&#x25fc;" horiz-adv-x="1050" d="M0 0v1050h1050v-1050h-1050z" />
</font>
</defs>
</svg>
